<svg width="18" height="18" viewBox="0 0 18 18" fill="none" xmlns="http://www.w3.org/2000/svg">
<path d="M8.14413 2.63425C8.41413 1.80535 9.58683 1.80535 9.85593 2.63425L10.8189 5.59705C10.8778 5.77749 10.9921 5.93471 11.1457 6.04624C11.2992 6.15777 11.4841 6.21791 11.6739 6.21805H14.7897C15.6618 6.21805 16.0236 7.33405 15.3189 7.84705L12.7989 9.67765C12.6451 9.78928 12.5305 9.94676 12.4716 10.1275C12.4128 10.3083 12.4127 10.503 12.4713 10.6838L13.4343 13.6466C13.7043 14.4755 12.7548 15.1658 12.0483 14.6528L9.52833 12.8222C9.37461 12.7107 9.18953 12.6505 8.99958 12.6505C8.80962 12.6505 8.62454 12.7107 8.47083 12.8222L5.95083 14.6528C5.24523 15.1658 4.29663 14.4755 4.56573 13.6466L5.52873 10.6838C5.58738 10.503 5.58728 10.3083 5.52843 10.1275C5.46957 9.94676 5.355 9.78928 5.20113 9.67765L2.68203 7.84795C1.97733 7.33495 2.34003 6.21895 3.21123 6.21895H6.32613C6.51607 6.219 6.70116 6.15895 6.8549 6.04741C7.00864 5.93586 7.12314 5.77853 7.18203 5.59795L8.14503 2.63515L8.14413 2.63425Z" fill="#77F2A1"/>
</svg>
