<svg width="30" height="30" viewBox="0 0 30 30" fill="none" xmlns="http://www.w3.org/2000/svg">
<path d="M4.5 18.75V16.5H6.74999V18.75H4.5Z" fill="white"/>
<path fill-rule="evenodd" clip-rule="evenodd" d="M21 30H3C1.34314 30 0 28.6568 0 27V3C0 1.34314 1.34314 0 3 0H21C22.6568 0 24 1.34314 24 3V27C24 28.6568 22.6568 30 21 30ZM10.5 6.74999C10.5 6.33577 10.8358 5.99999 11.25 5.99999H20.25C20.6642 5.99999 21 6.33577 21 6.74999C21 7.16422 20.6642 7.49999 20.25 7.49999H11.25C10.8358 7.49999 10.5 7.16422 10.5 6.74999ZM11.25 8.99999C10.8358 8.99999 10.5 9.33577 10.5 9.74999C10.5 10.1642 10.8358 10.5 11.25 10.5H20.25C20.6642 10.5 21 10.1642 21 9.74999C21 9.33577 20.6642 8.99999 20.25 8.99999H11.25ZM8.78032 6.21967C9.07319 6.51254 9.07319 6.98744 8.78032 7.28032L5.24999 10.8106L3.21966 8.78032C2.92677 8.48744 2.92677 8.01254 3.21966 7.71967C3.51256 7.42679 3.98743 7.42679 4.28033 7.71967L5.24999 8.68934L7.71967 6.21967C8.01254 5.92679 8.48744 5.92679 8.78032 6.21967ZM11.25 15C10.8358 15 10.5 15.3358 10.5 15.75C10.5 16.1642 10.8358 16.5 11.25 16.5H20.25C20.6642 16.5 21 16.1642 21 15.75C21 15.3358 20.6642 15 20.25 15H11.25ZM10.5 18.75C10.5 18.3358 10.8358 18 11.25 18H20.25C20.6642 18 21 18.3358 21 18.75C21 19.1642 20.6642 19.5 20.25 19.5H11.25C10.8358 19.5 10.5 19.1642 10.5 18.75ZM7.49999 15H3.75C3.33579 15 3 15.3358 3 15.75V19.5C3 19.9142 3.33579 20.25 3.75 20.25H7.49999C7.91422 20.25 8.24999 19.9142 8.24999 19.5V15.75C8.24999 15.3358 7.91422 15 7.49999 15Z" fill="white"/>
<path fill-rule="evenodd" clip-rule="evenodd" d="M30 27L27.75 30L25.5 27V13.5H30V27Z" fill="white"/>
<path fill-rule="evenodd" clip-rule="evenodd" d="M27 8.24996H28.5C29.3284 8.24996 30 8.92151 30 9.74996V12.75H25.5V9.74996C25.5 8.92151 26.1715 8.24996 27 8.24996Z" fill="white"/>
</svg>
