<svg width="30" height="30" viewBox="0 0 30 30" fill="none" xmlns="http://www.w3.org/2000/svg">
<path fill-rule="evenodd" clip-rule="evenodd" d="M30 0V22.9412H25.7143V28.2353H28.9286V30H5.35715C3.79286 30 2.29286 29.4353 1.26428 28.4471C0.450007 27.6529 0 26.6294 0 25.5882V4.41177C0 1.97647 2.4 0 5.35715 0L30 0ZM23.5714 22.9412H5.59285C3.9 22.9412 2.44286 23.8941 2.18572 25.1294C2.16428 25.2706 2.14285 25.4118 2.14285 25.5353V25.5882C2.14285 26.2235 2.4 26.8235 2.91429 27.3C3.5143 27.9 4.41429 28.2353 5.35715 28.2353H23.5714V26.4706H4.54285V24.7059H23.5714V22.9412ZM22.5 14.1176H7.49998V15.8824H22.5V14.1176H22.5ZM23.5714 5.29413H6.42856V12.3529H23.5714V5.29413ZM8.57144 10.5882H21.4286V7.05883H8.57144V10.5882Z" fill="white"/>
</svg>
