<svg width="22" height="22" viewBox="0 0 22 22" fill="none" xmlns="http://www.w3.org/2000/svg">
<path d="M10.525 1.29489C10.5688 1.20635 10.6365 1.13183 10.7204 1.07972C10.8044 1.02761 10.9012 1 11 1C11.0988 1 11.1956 1.02761 11.2795 1.07972C11.3634 1.13183 11.4311 1.20635 11.475 1.29489L13.785 5.97389C13.9371 6.28186 14.1618 6.5483 14.4396 6.75035C14.7174 6.95239 15.0401 7.08401 15.38 7.13389L20.546 7.88989C20.6439 7.90408 20.7358 7.94537 20.8115 8.00909C20.8871 8.07282 20.9434 8.15644 20.974 8.2505C21.0046 8.34456 21.0082 8.4453 20.9846 8.54133C20.9609 8.63736 20.9108 8.72485 20.84 8.79389L17.104 12.4319C16.8576 12.672 16.6732 12.9684 16.5668 13.2955C16.4604 13.6227 16.435 13.9708 16.493 14.3099L17.375 19.4499C17.3922 19.5477 17.3817 19.6485 17.3445 19.7406C17.3073 19.8327 17.2449 19.9125 17.1645 19.9709C17.0841 20.0293 16.9889 20.0639 16.8898 20.0708C16.7907 20.0777 16.6917 20.0566 16.604 20.0099L11.986 17.5819C11.6817 17.4221 11.3431 17.3386 10.9995 17.3386C10.6558 17.3386 10.3173 17.4221 10.013 17.5819L5.39597 20.0099C5.3083 20.0563 5.20937 20.0772 5.11042 20.0701C5.01147 20.0631 4.91649 20.0285 4.83626 19.9701C4.75604 19.9118 4.6938 19.8321 4.65662 19.7401C4.61945 19.6482 4.60883 19.5476 4.62597 19.4499L5.50697 14.3109C5.56516 13.9716 5.53995 13.6233 5.43351 13.2959C5.32706 12.9686 5.14258 12.672 4.89597 12.4319L1.15997 8.79489C1.08856 8.72593 1.03796 8.63829 1.01393 8.54197C0.9899 8.44565 0.993406 8.34451 1.02405 8.25008C1.05469 8.15566 1.11124 8.07174 1.18725 8.00788C1.26326 7.94402 1.35567 7.90279 1.45397 7.88889L6.61897 7.13389C6.95923 7.08439 7.28236 6.95295 7.56055 6.75088C7.83875 6.54881 8.06367 6.28216 8.21597 5.97389L10.525 1.29489Z" fill="#77F2A1" stroke="#77F2A1" stroke-width="2" stroke-linecap="round" stroke-linejoin="round"/>
</svg>
