<svg width="23" height="20" viewBox="0 0 23 20" fill="none" xmlns="http://www.w3.org/2000/svg">
<path d="M17.6061 19C17.6061 16.8783 16.7313 14.8434 15.1742 13.3431C13.617 11.8429 11.5051 11 9.30303 11M9.30303 11C7.10093 11 4.98902 11.8429 3.4319 13.3431C1.87478 14.8434 1 16.8783 1 19M9.30303 11C12.1691 11 14.4924 8.76142 14.4924 6C14.4924 3.23858 12.1691 1 9.30303 1C6.43701 1 4.11364 3.23858 4.11364 6C4.11364 8.76142 6.43701 11 9.30303 11ZM21.7576 18C21.7576 14.63 19.6818 11.5 17.6061 10C18.2884 9.50677 18.834 8.85909 19.1946 8.11427C19.5552 7.36945 19.7197 6.55047 19.6735 5.7298C19.6274 4.90913 19.3719 4.11209 18.9298 3.4092C18.4878 2.70631 17.8727 2.11926 17.139 1.7" stroke="#043873" stroke-width="2" stroke-linecap="round" stroke-linejoin="round"/>
</svg>
