<svg width="46" height="41" viewBox="0 0 46 41" fill="none" xmlns="http://www.w3.org/2000/svg">
<path d="M23 10V3H15M3 20.5H7M17 18.75V22.25M29 18.75V22.25M39 20.5H43M15 31L7 38V13.5C7 12.5717 7.42143 11.6815 8.17157 11.0251C8.92172 10.3687 9.93913 10 11 10H35C36.0609 10 37.0783 10.3687 37.8284 11.0251C38.5786 11.6815 39 12.5717 39 13.5V27.5C39 28.4283 38.5786 29.3185 37.8284 29.9749C37.0783 30.6312 36.0609 31 35 31H15Z" stroke="white" stroke-width="5" stroke-linecap="round" stroke-linejoin="round"/>
</svg>
