<svg width="21" height="20" viewBox="0 0 21 20" fill="none" xmlns="http://www.w3.org/2000/svg">
<path d="M5.15209 1V19M2.03802 1H8.26616C8.83944 1 9.30418 1.44772 9.30418 2V18C9.30418 18.5523 8.83944 19 8.26616 19H2.03802C1.46474 19 1 18.5523 1 18V2C1 1.44772 1.46474 1 2.03802 1ZM19.0616 16.9C19.2692 17.4 18.9578 18 18.4388 18.2L16.4665 18.9C15.9475 19.1 15.3247 18.8 15.1171 18.3L9.40798 3.1C9.20038 2.6 9.51179 2 10.0308 1.8L12.003 1.1C12.5221 0.9 13.1449 1.2 13.3525 1.7L19.0616 16.9Z" stroke="#043873" stroke-width="2" stroke-linecap="round" stroke-linejoin="round"/>
</svg>
