<svg width="22" height="21" viewBox="0 0 22 21" fill="none" xmlns="http://www.w3.org/2000/svg">
<path d="M10 15L12 17C12.197 17.197 12.4308 17.3533 12.6882 17.4599C12.9456 17.5665 13.2214 17.6213 13.5 17.6213C13.7786 17.6213 14.0544 17.5665 14.3118 17.4599C14.5692 17.3533 14.803 17.197 15 17C15.197 16.803 15.3532 16.5692 15.4598 16.3118C15.5665 16.0544 15.6213 15.7786 15.6213 15.5C15.6213 15.2214 15.5665 14.9456 15.4598 14.6882C15.3532 14.4309 15.197 14.197 15 14M13 12L15.5 14.5C15.8978 14.8978 16.4374 15.1213 17 15.1213C17.5626 15.1213 18.1022 14.8978 18.5 14.5C18.8978 14.1022 19.1213 13.5626 19.1213 13C19.1213 12.4374 18.8978 11.8978 18.5 11.5L14.62 7.62002C14.0575 7.05821 13.295 6.74265 12.5 6.74265C11.705 6.74265 10.9425 7.05821 10.38 7.62002L9.5 8.50002C9.10218 8.89784 8.56261 9.12134 8 9.12134C7.43739 9.12134 6.89782 8.89784 6.5 8.50002C6.10218 8.10219 5.87868 7.56262 5.87868 7.00002C5.87868 6.43741 6.10218 5.89784 6.5 5.50002L9.31 2.69002C10.2222 1.78016 11.4119 1.20057 12.6906 1.04299C13.9694 0.885409 15.2642 1.15885 16.37 1.82002L16.84 2.10002C17.2658 2.357 17.772 2.44613 18.26 2.35002L20 2.00002M20 1.00002L21 12H19M2 1.00002L1 12L7.5 18.5C7.89782 18.8978 8.43739 19.1213 9 19.1213C9.56261 19.1213 10.1022 18.8978 10.5 18.5C10.8978 18.1022 11.1213 17.5626 11.1213 17C11.1213 16.4374 10.8978 15.8978 10.5 15.5M2 2.00002H10" stroke="#043873" stroke-width="2" stroke-linecap="round" stroke-linejoin="round"/>
</svg>
