<svg width="23" height="16" viewBox="0 0 23 16" fill="none" xmlns="http://www.w3.org/2000/svg">
<path d="M20.9998 6.00036V12.0004M4.9998 8.50036V12.0004C4.9998 12.796 5.63194 13.5591 6.75716 14.1217C7.88238 14.6843 9.4085 15.0004 10.9998 15.0004C12.5911 15.0004 14.1172 14.6843 15.2424 14.1217C16.3677 13.5591 16.9998 12.796 16.9998 12.0004V8.50036M20.4198 6.92236C20.5988 6.84338 20.7507 6.71363 20.8567 6.54916C20.9627 6.3847 21.0181 6.19275 21.0161 5.99709C21.0141 5.80144 20.9547 5.61068 20.8454 5.44844C20.736 5.2862 20.5814 5.15961 20.4008 5.08436L11.8298 1.18036C11.5692 1.06151 11.2862 1 10.9998 1C10.7134 1 10.4304 1.06151 10.1698 1.18036L1.5998 5.08036C1.42177 5.15833 1.27031 5.28649 1.16396 5.44917C1.05761 5.61185 1.00098 5.802 1.00098 5.99636C1.00098 6.19072 1.05761 6.38086 1.16396 6.54354C1.27031 6.70622 1.42177 6.83438 1.5998 6.91236L10.1698 10.8204C10.4304 10.9392 10.7134 11.0007 10.9998 11.0007C11.2862 11.0007 11.5692 10.9392 11.8298 10.8204L20.4198 6.92236Z" stroke="#043873" stroke-width="2" stroke-linecap="round" stroke-linejoin="round"/>
</svg>
