<svg width="30" height="34" viewBox="0 0 30 34" fill="none" xmlns="http://www.w3.org/2000/svg">
<path d="M15 33.0769C17.185 33.0769 19.0117 31.6976 19.6967 29.7692H10.3033C10.9883 31.6976 12.815 33.0769 15 33.0769ZM26.6667 20.8153V13.2308C26.6667 7.91035 23.025 3.42842 18.0917 2.08054C17.6033 0.86 16.41 0 15 0C13.59 0 12.3967 0.86 11.9083 2.08054C6.975 3.43008 3.33333 7.91035 3.33333 13.2308V20.8153L0.488333 23.6384C0.175 23.9477 0 24.3678 0 24.8077V26.4615C0 27.3761 0.745 28.1154 1.66667 28.1154H28.3333C29.255 28.1154 30 27.3761 30 26.4615V24.8077C30 24.3678 29.825 23.9477 29.5117 23.6384L26.6667 20.8153Z" fill="white"/>
</svg>
