<svg width="19" height="19" viewBox="0 0 19 19" fill="none" xmlns="http://www.w3.org/2000/svg">
<path d="M18.706 17.9207L13.5009 12.8777C14.7516 11.4229 15.3753 9.55689 15.2422 7.66789C15.1091 5.7789 14.2295 4.01233 12.7862 2.7357C11.343 1.45907 9.44733 0.770654 7.49355 0.813668C5.53978 0.856683 3.67833 1.62781 2.29644 2.96665C0.914555 4.30548 0.118626 6.10893 0.0742276 8.00184C0.0298298 9.89474 0.740382 11.7314 2.05807 13.1296C3.37576 14.5279 5.19913 15.3801 7.14887 15.5091C9.09862 15.6381 11.0246 15.0338 12.5262 13.822L17.7314 18.865L18.706 17.9207ZM1.47513 8.18079C1.47513 6.99215 1.83894 5.83021 2.52055 4.84189C3.20216 3.85357 4.17095 3.08327 5.30443 2.6284C6.4379 2.17353 7.68514 2.05451 8.88843 2.2864C10.0917 2.5183 11.197 3.09068 12.0645 3.93118C12.9321 4.77167 13.5229 5.84253 13.7622 7.00832C14.0016 8.17412 13.8787 9.38251 13.4092 10.4807C12.9397 11.5788 12.1446 12.5174 11.1245 13.1778C10.1044 13.8382 8.90513 14.1907 7.67826 14.1907C6.03365 14.1889 4.45692 13.5551 3.294 12.4285C2.13109 11.3018 1.47696 9.77416 1.47513 8.18079Z" fill="#CFD7D9"/>
</svg>
