<svg width="22" height="19" viewBox="0 0 22 19" fill="none" xmlns="http://www.w3.org/2000/svg">
<path d="M19 18V10C19 9.46957 18.7893 8.96086 18.4142 8.58579C18.0391 8.21071 17.5304 8 17 8H5C4.46957 8 3.96086 8.21071 3.58579 8.58579C3.21071 8.96086 3 9.46957 3 10V18M3 13C3 13 3.5 12 5 12C6.5 12 7.5 14 9 14C10.5 14 11.5 12 13 12C14.5 12 15.5 14 17 14C18.5 14 19 13 19 13M1 18H21M6 5V8M11 5V8M16 5V8M6 1H6.01M11 1H11.01M16 1H16.01" stroke="#212529" stroke-width="2" stroke-linecap="round" stroke-linejoin="round"/>
</svg>
