<svg width="19" height="25" viewBox="0 0 19 25" fill="none" xmlns="http://www.w3.org/2000/svg">
<path d="M18.1641 0H14.3066C13.7842 0 13.5254 0.629883 13.8916 1.00098L14.7168 1.82617L10.7764 5.7666C9.69238 5.08301 8.4082 4.6875 7.03125 4.6875C3.14941 4.6875 0 7.83691 0 11.7188C0 15.0635 2.33887 17.8662 5.46875 18.5742V19.9219H3.71094C3.38867 19.9219 3.125 20.1855 3.125 20.5078V22.4609C3.125 22.7832 3.38867 23.0469 3.71094 23.0469H5.46875V24.4141C5.46875 24.7363 5.73242 25 6.05469 25H8.00781C8.33008 25 8.59375 24.7363 8.59375 24.4141V23.0469H10.3516C10.6738 23.0469 10.9375 22.7832 10.9375 22.4609V20.5078C10.9375 20.1855 10.6738 19.9219 10.3516 19.9219H8.59375V18.5742C11.7236 17.8613 14.0625 15.0635 14.0625 11.7188C14.0625 10.3418 13.667 9.05762 12.9834 7.97363L16.9238 4.0332L17.749 4.8584C18.1201 5.22949 18.75 4.96582 18.75 4.44336V0.585938C18.75 0.263672 18.4863 0 18.1641 0ZM7.03125 15.625C4.87793 15.625 3.125 13.8721 3.125 11.7188C3.125 9.56543 4.87793 7.8125 7.03125 7.8125C9.18457 7.8125 10.9375 9.56543 10.9375 11.7188C10.9375 13.8721 9.18457 15.625 7.03125 15.625Z" fill="#212529"/>
</svg>
