<svg width="22" height="16" viewBox="0 0 22 16" fill="none" xmlns="http://www.w3.org/2000/svg">
<path d="M15 6H17M15 10H17M5.17 11C5.37614 10.414 5.7591 9.90646 6.26602 9.54742C6.77294 9.18837 7.37881 8.99554 8 8.99554C8.62119 8.99554 9.22706 9.18837 9.73398 9.54742C10.2409 9.90646 10.6239 10.414 10.83 11M10 7C10 8.10457 9.10457 9 8 9C6.89543 9 6 8.10457 6 7C6 5.89543 6.89543 5 8 5C9.10457 5 10 5.89543 10 7ZM3 1H19C20.1046 1 21 1.89543 21 3V13C21 14.1046 20.1046 15 19 15H3C1.89543 15 1 14.1046 1 13V3C1 1.89543 1.89543 1 3 1Z" stroke="#212529" stroke-width="2" stroke-linecap="round" stroke-linejoin="round"/>
</svg>
