<svg width="15" height="13" viewBox="0 0 15 13" fill="none" xmlns="http://www.w3.org/2000/svg">
<path d="M6.97169 0.634309C7.24891 -0.194591 8.45295 -0.194591 8.72925 0.634309L9.71799 3.59711C9.77839 3.77755 9.89582 3.93477 10.0535 4.0463C10.2111 4.15784 10.401 4.21797 10.5958 4.21811H13.7949C14.6903 4.21811 15.0618 5.33411 14.3383 5.84711L11.7509 7.67771C11.5929 7.78934 11.4753 7.94682 11.4149 8.12758C11.3544 8.30834 11.3543 8.50309 11.4145 8.68391L12.4033 11.6467C12.6805 12.4756 11.7056 13.1659 10.9802 12.6529L8.39289 10.8223C8.23507 10.7107 8.04504 10.6506 7.85001 10.6506C7.65498 10.6506 7.46495 10.7107 7.30713 10.8223L4.71977 12.6529C3.99531 13.1659 3.02136 12.4756 3.29765 11.6467L4.28639 8.68391C4.34661 8.50309 4.34651 8.30834 4.28608 8.12758C4.22566 7.94682 4.10802 7.78934 3.95003 7.67771L1.3636 5.84801C0.64007 5.33501 1.01246 4.21901 1.90695 4.21901H5.1051C5.30012 4.21906 5.49016 4.15901 5.64801 4.04747C5.80586 3.93592 5.92342 3.77859 5.98388 3.59801L6.97262 0.635209L6.97169 0.634309Z" fill="#77F2A1"/>
</svg>
