<svg width="21" height="18" viewBox="0 0 21 18" fill="none" xmlns="http://www.w3.org/2000/svg">
<path d="M10.5085 2.62833C11.0492 2.12059 11.7637 1.76126 12.557 1.59816C13.3503 1.43507 14.1848 1.47594 14.9493 1.71533C15.7139 1.95473 16.3723 2.38131 16.837 2.9383C17.3017 3.49529 17.5506 4.15629 17.5506 4.83333C17.5506 5.51038 17.3017 6.17138 16.837 6.72837C16.3723 7.28536 15.7139 7.71193 14.9493 7.95133C14.1848 8.19073 13.3503 8.2316 12.557 8.06851C11.7637 7.90541 11.0492 7.54608 10.5085 7.03833V2.62833ZM13.5266 16.5H1.4541V15.6667C1.4541 14.3406 2.09006 13.0688 3.22208 12.1311C4.3541 11.1935 5.88945 10.6667 7.49037 10.6667C9.09129 10.6667 10.6266 11.1935 11.7587 12.1311C12.8907 13.0688 13.5266 14.3406 13.5266 15.6667V16.5ZM13.5266 16.5H19.5629V15.6667C19.5631 14.7889 19.2843 13.9266 18.7545 13.1664C18.2248 12.4062 17.4628 11.7749 16.5451 11.336C15.6275 10.8971 14.5865 10.666 13.5269 10.666C12.4672 10.6659 11.4262 10.897 10.5085 11.3358L13.5266 16.5ZM11.5146 4.83333C11.5146 5.71739 11.0906 6.56524 10.3359 7.19036C9.58122 7.81548 8.55765 8.16667 7.49037 8.16667C6.42309 8.16667 5.39953 7.81548 4.64485 7.19036C3.89017 6.56524 3.46619 5.71739 3.46619 4.83333C3.46619 3.94928 3.89017 3.10143 4.64485 2.47631C5.39953 1.85119 6.42309 1.5 7.49037 1.5C8.55765 1.5 9.58122 1.85119 10.3359 2.47631C11.0906 3.10143 11.5146 3.94928 11.5146 4.83333V4.83333Z" stroke="black" stroke-width="1.5" stroke-linecap="round" stroke-linejoin="round"/>
</svg>
