<svg width="24" height="20" viewBox="0 0 24 20" fill="none" xmlns="http://www.w3.org/2000/svg">
<path d="M12.2178 6V10L15.8396 13L12.2178 6ZM23.0831 10C23.0831 11.1819 22.8021 12.3522 22.256 13.4442C21.71 14.5361 20.9097 15.5282 19.9007 16.364C18.8918 17.1997 17.694 17.8626 16.3758 18.3149C15.0576 18.7672 13.6447 19 12.2178 19C10.791 19 9.3781 18.7672 8.05986 18.3149C6.74162 17.8626 5.54384 17.1997 4.53491 16.364C3.52597 15.5282 2.72564 14.5361 2.17961 13.4442C1.63358 12.3522 1.35254 11.1819 1.35254 10C1.35254 7.61305 2.49727 5.32387 4.53491 3.63604C6.57254 1.94821 9.33617 1 12.2178 1C15.0995 1 17.8631 1.94821 19.9007 3.63604C21.9384 5.32387 23.0831 7.61305 23.0831 10Z" stroke="black" stroke-width="1.5" stroke-linecap="round" stroke-linejoin="round"/>
</svg>
