<svg width="24" height="19" viewBox="0 0 24 19" fill="none" xmlns="http://www.w3.org/2000/svg">
<path d="M15.1666 8.727L11.307 6.67919C11.125 6.58259 10.9134 6.52714 10.6949 6.51879C10.4764 6.51043 10.2591 6.54947 10.0663 6.63174C9.87355 6.714 9.71248 6.83641 9.60034 6.98586C9.4882 7.13531 9.42922 7.3062 9.42969 7.48026V11.5749C9.42966 11.7488 9.48896 11.9195 9.60127 12.0686C9.71358 12.2178 9.87469 12.3399 10.0674 12.422C10.2601 12.504 10.4772 12.5429 10.6955 12.5344C10.9138 12.526 11.1252 12.4706 11.307 12.3741L15.1666 10.3263C15.3319 10.2385 15.4675 10.1197 15.5612 9.98029C15.655 9.84089 15.7041 9.68522 15.7041 9.52711C15.7041 9.369 15.655 9.21333 15.5612 9.07392C15.4675 8.93451 15.3319 8.81472 15.1666 8.727Z" stroke="black" stroke-width="1.5" stroke-linecap="round" stroke-linejoin="round"/>
<path d="M22.7101 9.52615C22.7101 10.6614 22.429 11.7855 21.883 12.8343C21.337 13.8831 20.5366 14.8361 19.5277 15.6388C18.5188 16.4415 17.321 17.0783 16.0027 17.5127C14.6845 17.9472 13.2716 18.1708 11.8448 18.1708C10.4179 18.1708 9.00505 17.9472 7.68681 17.5127C6.36858 17.0783 5.17079 16.4415 4.16186 15.6388C3.15293 14.8361 2.35259 13.8831 1.80656 12.8343C1.26053 11.7855 0.979492 10.6614 0.979492 9.52615C0.979492 7.23346 2.12422 5.03467 4.16186 3.41349C6.1995 1.79231 8.96312 0.881538 11.8448 0.881538C14.7264 0.881538 17.4901 1.79231 19.5277 3.41349C21.5653 5.03467 22.7101 7.23346 22.7101 9.52615Z" stroke="black" stroke-width="1.5" stroke-linecap="round" stroke-linejoin="round"/>
</svg>
