<svg width="336" height="301" viewBox="0 0 336 301" fill="none" xmlns="http://www.w3.org/2000/svg">
<path opacity="0.2" fill-rule="evenodd" clip-rule="evenodd" d="M38.2026 50.7242C55.7665 41.0607 72.2705 29.0542 87.466 16.4473C89.4944 14.7669 92.7613 12.8844 91.8845 9.49888C89.0692 8.03503 84.8298 11.2289 82.3531 12.7405C74.5844 17.4886 69.234 21.8592 61.4404 27.3346C54.6049 32.1356 47.5706 36.8595 40.76 42.3891C38.2649 44.4122 35.5756 46.6819 34.9496 48.4107C34.7566 48.9438 34.483 51.0781 34.483 51.4208C34.4817 54.3328 36.1676 56.7235 37.2734 59.2967C43.5937 74.0131 50.5001 87.2708 57.9531 101.218C58.4847 102.21 59.1705 103.541 59.8136 104.693C60.521 105.963 61.531 107.112 61.6721 107.935C61.8867 109.176 61.4496 111.093 61.4398 112.801C61.4234 116.15 60.626 125.634 63.5325 126.002C66.5355 126.383 66.3196 119.777 66.3196 116.736C66.3196 108.746 65.2768 103.17 62.8349 97.7461C55.6687 81.8294 45.5907 66.4459 38.2026 50.7242Z" fill="#212529"/>
<path fill-rule="evenodd" clip-rule="evenodd" d="M35.3938 130.494C35.6596 128.723 35.7856 126.219 36.9386 125.001C39.0268 122.787 42.7976 123.842 45.7586 122.582C47.4281 121.87 48.2005 118.881 50.3898 117.968C51.6025 117.46 52.8783 117.622 54.137 117.526C55.6798 117.407 57.3145 117.351 59.0004 117.321C59.0004 117.316 59.0004 117.311 58.9991 117.305C59.2669 117.307 59.5386 117.305 59.8116 117.305C61.2402 117.289 62.7037 117.29 64.1802 117.298C65.6515 117.291 67.115 117.289 68.5436 117.305C68.8146 117.305 69.087 117.307 69.3541 117.305C69.3528 117.311 69.3528 117.315 69.3528 117.321C71.0406 117.351 72.678 117.407 74.2162 117.526C75.4756 117.622 76.7526 117.46 77.9654 117.968C80.1546 118.881 80.9271 121.87 82.5965 122.582C85.5582 123.842 89.329 122.787 91.4185 125.001C92.5696 126.219 92.6956 128.723 92.9601 130.494C82.9214 130.723 45.4331 130.723 35.3938 130.494Z" fill="#4F76F6"/>
<path fill-rule="evenodd" clip-rule="evenodd" d="M30.6511 51.6237C30.6511 55.1879 33.5498 58.0789 37.1257 58.0789C40.7016 58.0789 43.6003 55.1879 43.6003 51.6237C43.6003 48.0609 40.7016 45.1685 37.1257 45.1685C33.5498 45.1685 30.6511 48.0609 30.6511 51.6237Z" fill="#4F76F6"/>
<path fill-rule="evenodd" clip-rule="evenodd" d="M34.04 51.6235C34.04 53.3222 35.4221 54.6997 37.1264 54.6997C38.832 54.6997 40.2127 53.3222 40.2127 51.6235C40.2127 49.9249 38.8326 48.5474 37.1264 48.5474C35.4221 48.5474 34.04 49.9249 34.04 51.6235Z" fill="white"/>
<path fill-rule="evenodd" clip-rule="evenodd" d="M121.582 27.7167C124.991 31.9716 124.297 38.1737 120.028 41.5743C115.761 44.9736 109.535 44.2796 106.125 40.0267C103.874 37.2154 103.529 30.4162 102.169 27.4015C101.825 26.6381 101.75 25.7957 102.406 25.2744L108.082 20.7526C108.736 20.2313 109.551 20.4812 110.218 20.9907C112.842 22.9935 119.368 24.9571 121.582 27.7167Z" fill="#CFD7D9"/>
<path fill-rule="evenodd" clip-rule="evenodd" d="M106.313 16.1909C105.844 16.0201 105.406 16.2752 105.021 16.4492C103.927 16.9561 102.919 17.6992 101.964 18.3978C101.345 18.8465 100.717 19.4162 100.119 19.9558C99.8316 20.2174 99.5363 20.5235 99.26 20.8329C98.9857 21.1443 98.6655 21.5197 98.7219 22.0214C99.0126 22.4937 99.8198 22.27 100.261 22.1542C100.061 22.5617 99.1583 23.1608 99.4825 23.8463C99.7732 24.4703 100.962 24.1027 101.524 24.0118C101.373 24.4984 100.745 25.1408 101.17 25.6392C101.466 25.7785 101.974 25.6758 102.289 25.5731C102.976 25.3448 103.654 24.9059 104.313 24.4788C105.567 23.6691 106.731 22.8168 107.837 21.6976C108.072 21.4609 108.352 21.1731 108.607 20.8382C109.001 20.3103 109.572 19.2605 108.451 19.2075C107.797 19.1761 107.164 19.5156 106.657 19.668C106.813 19.3187 107.398 18.8151 107.434 18.2408C107.499 17.1648 105.926 17.711 105.426 18.0203C105.401 18.0223 105.391 18.0485 105.363 18.0452C105.539 17.7973 105.838 17.5317 106.063 17.2354C106.264 16.9653 106.563 16.5663 106.313 16.1909Z" fill="#CFD7D9"/>
<path fill-rule="evenodd" clip-rule="evenodd" d="M103.532 17.5827C102.867 16.7566 101.656 16.6205 100.823 17.2831C99.9938 17.9438 99.8593 19.1505 100.521 19.9819C101.185 20.808 102.398 20.9454 103.228 20.2834C104.059 19.6189 104.194 18.4121 103.532 17.5827Z" fill="#CFD7D9"/>
<path fill-rule="evenodd" clip-rule="evenodd" d="M87.9311 16.4474C84.2988 27.6971 90.9446 39.9083 95.6001 47.4846C106.968 38.3555 118.252 29.1426 128.598 18.9951C120.908 13.6623 108.609 5.74061 95.8311 9.73056C92.8248 6.8349 88.928 0.188043 83.5159 0.00228164C80.1172 -0.113492 80.001 4.20089 81.1921 7.41574C82.521 10.9988 85.7616 13.9939 87.9311 16.4474Z" fill="#4F76F6"/>
<path fill-rule="evenodd" clip-rule="evenodd" d="M13.3432 91.4884C20.8796 91.1228 28.3772 90.2666 35.8204 89.0578C35.613 91.5728 35.3702 94.0878 35.1379 96.604C34.731 100.986 32.6993 119.999 31.075 128.025C30.9385 128.696 30.218 130.338 28.1265 130.376C27.4952 130.388 15.1754 130.651 14.4424 130.656C13.5735 130.661 11.7236 129.995 11.5437 128.426C11.381 126.961 11.1566 125.496 10.9623 124.011C9.28822 111.172 7.91599 104.477 6.21367 91.7271C8.61424 91.6918 10.9977 91.6009 13.3432 91.4884Z" fill="#4F76F6"/>
<path d="M25.3349 91.3112C24.0572 91.2798 22.8129 91.2216 21.5542 91.2452C18.8498 91.3014 16.2937 91.427 13.7856 91.4767C13.1378 91.4918 12.498 91.5565 11.8621 91.5545C10.0364 91.5447 8.09323 91.4303 6.19141 91.3792C5.9171 91.3727 5.52336 91.3609 5.21165 91.4303C5.19655 91.1189 5.22017 90.7729 5.22805 90.3844C5.2648 88.356 5.55223 86.2865 6.02014 84.7932C7.43699 80.2735 10.0482 77.6676 14.3368 75.8616C16.3285 75.0237 18.8945 74.3664 21.6822 74.4429C26.8928 74.5835 30.5803 76.7473 32.8693 79.7875C34.6996 82.2213 35.8388 85.0176 36.3638 88.8433C36.4669 89.5969 36.6296 90.6774 36.4885 91.4839C36.0797 91.3629 35.4523 91.3269 34.9601 91.2988C31.8757 91.1026 28.4573 91.391 25.3349 91.3112Z" fill="#4F76F6"/>
<path d="M15.4707 60.9508C14.5224 61.0385 13.7231 60.7703 13.6883 60.3562C13.647 59.9461 14.3859 59.5399 15.3296 59.4523C16.2812 59.3692 17.0805 59.6328 17.1173 60.0469C17.1553 60.4609 16.4177 60.8664 15.4707 60.9508Z" fill="#4F76F6"/>
<path d="M20.7568 99.2381L21.4295 106.475C20.3348 106.198 18.878 105.483 17.7401 104.036L16.9794 95.8231C17.9678 97.7382 19.4857 98.758 20.7568 99.2381Z" fill="#CFD7D9"/>
<path d="M19.6485 87.3114L20.1932 93.1936C19.0008 92.8011 17.519 91.9135 16.4591 90.2253L15.8797 84.0069C16.8831 85.8678 18.3931 86.8528 19.6485 87.3114Z" fill="#CFD7D9"/>
<path d="M19.0886 81.2636C17.9061 80.8842 16.4275 80.03 15.3592 78.3732L14.7167 71.4444C15.7398 73.2458 17.24 74.1929 18.4704 74.6298L19.0886 81.2636Z" fill="#CFD7D9"/>
<path d="M21.9906 112.542L22.2249 115.077C21.7301 116.085 19.634 115.469 18.7665 115.098L18.2749 109.781C19.365 111.379 20.835 112.19 21.9906 112.542Z" fill="#CFD7D9"/>
<path d="M14.1937 65.8003L13.6891 60.3602C13.7258 60.7723 14.5245 61.0391 15.4715 60.9515C16.4184 60.8671 17.1561 60.4616 17.1173 60.0475L17.9094 68.5769C16.7485 68.2191 15.2785 67.4028 14.1937 65.8003Z" fill="#CFD7D9"/>
<path d="M17.9114 68.5768L18.4712 74.6311C17.2407 74.1941 15.7405 73.2418 14.7174 71.4443L14.1924 65.7989C15.2785 67.406 16.7485 68.219 17.9114 68.5768Z" fill="#4F76F6"/>
<path d="M19.0886 81.2637L19.6484 87.3134C18.3924 86.8536 16.883 85.8679 15.8829 84.0089L15.3598 78.3733C16.4275 80.0301 17.9061 80.8843 19.0886 81.2637Z" fill="#4F76F6"/>
<path d="M20.1951 93.1916L20.7562 99.238C19.4857 98.7598 17.9671 97.7381 16.9788 95.8223L16.4591 90.2246C17.5176 91.9154 19.0007 92.8011 20.1951 93.1916Z" fill="#4F76F6"/>
<path d="M21.4296 106.475L21.9907 112.543C20.8311 112.192 19.3643 111.379 18.275 109.783L17.7401 104.036C18.8846 105.483 20.3362 106.196 21.4296 106.475Z" fill="#4F76F6"/>
<path d="M31.0749 128.025C30.9653 128.699 30.2179 130.338 28.1264 130.376C28.1048 130.376 28.0778 130.376 28.0398 130.378C27.8816 130.281 27.7209 130.181 27.5581 130.088C24.8058 128.502 22.6763 127.108 20.5369 124.882C17.7813 122.026 15.9805 124.754 14.248 121.098C11.0121 114.274 9.08533 107.627 7.36595 99.265C12.4506 98.1092 17.0994 99.8066 20.9687 101.644C21.1826 101.745 21.3953 101.847 21.6112 101.948C24.0564 103.11 26.5547 104.241 29.1095 104.315C31.1196 104.373 33.1625 103.56 34.1291 102.564C34.2755 102.414 34.4198 102.18 34.6193 101.971C34.3687 104.566 32.392 119.966 31.0749 128.025Z" fill="#4F76F6"/>
<path opacity="0.2" d="M29.1101 104.316C26.5553 104.241 24.057 103.111 21.6118 101.949C24.8609 101.568 27.2411 99.6809 30.5716 99.4304C32.5633 99.2845 34.6397 100.223 34.6692 101.912C34.6679 101.917 34.6679 101.919 34.6659 101.92C34.4402 102.142 34.284 102.403 34.1291 102.564C33.1631 103.561 31.1196 104.374 29.1101 104.316Z" fill="#212529"/>
<path opacity="0.2" d="M11.5443 128.426C11.3815 126.961 11.1571 125.496 10.9628 124.011C9.61752 113.712 8.64431 109.51 7.24716 99.2898C7.28194 99.2813 7.32329 99.2748 7.3666 99.265C9.08597 107.627 10.5428 108.253 13.7814 115.081C15.5139 118.735 17.7813 122.026 20.5369 124.882C22.6763 127.108 24.8058 128.503 27.5581 130.088C27.7208 130.181 27.8816 130.281 28.0398 130.378C26.7758 130.403 15.1517 130.651 14.4423 130.656C13.5741 130.661 11.7234 129.995 11.5443 128.426Z" fill="#212529"/>
<path d="M4.88875 91.5498C4.97341 91.4916 5.08431 91.457 5.21097 91.4301C5.52334 91.3608 5.9171 91.3726 6.19076 91.3791C8.09257 91.4301 10.0357 91.5446 11.8614 91.5544C12.4973 91.5564 13.1372 91.4916 13.7849 91.4766C16.2931 91.4269 18.8498 91.3013 21.5535 91.245C22.8122 91.2215 24.0565 91.2797 25.3342 91.3111C28.4567 91.3909 31.8751 91.1024 34.9601 91.298C35.4516 91.3261 36.0797 91.3628 36.4885 91.4831C36.5548 91.5027 36.6184 91.5243 36.6729 91.5492C37.3075 91.8435 37.593 92.4499 37.7262 93.3368C37.7892 93.7443 37.8857 94.1512 37.7498 94.4233C37.3961 95.1382 35.2567 95.0852 33.9127 95.0459C32.4578 95.0028 30.999 94.9151 29.6569 94.8818C28.1705 94.8406 26.753 94.8157 25.3349 94.7876C22.6541 94.7346 19.1425 94.9518 16.4368 95.0093C15.0068 95.0374 13.5998 94.9779 12.1495 94.9511C10.7989 94.9243 9.33222 94.9262 7.82744 94.8569C6.62978 94.8039 4.67285 94.7712 4.28435 93.9549C3.89716 93.1491 4.4996 91.8075 4.88875 91.5498Z" fill="#212529"/>
<path d="M146.379 121.519L140.934 79.4951C140.7 77.5165 139.1 75.9591 137.109 75.8047L76.6213 71.7219C75.3889 71.616 74.1761 72.0529 73.2994 72.9156C72.4227 73.7764 71.9672 74.9819 72.0519 76.205L78.7942 123.723C78.9366 125.735 80.4768 127.326 82.4186 127.591C82.6431 127.624 82.8669 127.632 83.0998 127.628L142.293 126.222C143.479 126.194 144.602 125.667 145.379 124.772C146.156 123.878 146.515 122.7 146.379 121.519Z" fill="#212529"/>
<path d="M142.164 117.653L83.3551 119.54L77.0328 77.007L137.04 80.3598L142.164 117.653Z" fill="#4F76F6"/>
<path d="M175.447 124.357C175.447 127.148 173.177 129.411 170.376 129.411L84.2838 130.667C81.4849 130.667 79.3369 127.148 79.3369 124.357C79.3369 121.568 81.6076 119.303 84.4078 119.303H170.376C173.177 119.302 175.447 121.567 175.447 124.357Z" fill="#212529"/>
<path fill-rule="evenodd" clip-rule="evenodd" d="M183.043 129.411C123.75 129.401 63.9071 130.324 5.03954 130.515C4.78229 133.81 4.83018 137.379 4.55588 140.659C65.4749 140.131 124.728 139.699 183.282 136.47C183.282 134.338 183.282 132.205 183.282 130.074C183.302 129.76 183.322 129.449 183.043 129.411Z" fill="#CFD7D9"/>
<path d="M60.889 137.131C65.1697 137.131 69.4485 137.131 73.7272 137.131C74.1059 137.231 73.6826 137.441 73.7272 137.852C68.2174 167.356 60.5786 195.752 53.5869 224.283C47.2535 250.133 41.6655 276.123 34.1147 301H28.2924C40.3799 247.703 50.933 192.739 60.889 137.131Z" fill="#CFD7D9"/>
<path d="M160.044 223.804C152.463 195.226 144.628 166.539 137.027 138.09C141.453 138.09 145.878 138.09 150.306 138.09C150.614 138.152 150.557 138.615 150.748 138.808C157.344 166.822 163.492 195.105 169.338 223.565C174.647 249.415 180.891 275.009 185.983 301H181.437C177.859 289.669 174.956 278.002 171.771 266.423C167.879 252.259 163.836 238.107 160.044 223.804Z" fill="#CFD7D9"/>
<path d="M41.5927 253.663H172.18V259.675H41.5927V253.663Z" fill="#CFD7D9"/>
<path fill-rule="evenodd" clip-rule="evenodd" d="M50.4233 221.026C50.2539 220.998 50.2402 221.114 50.2356 221.235C49.1908 227.573 51.9615 233.196 55.3898 235.999C55.4528 238.966 55.2054 243.642 55.7251 246.796C55.8728 247.675 56.044 248.817 56.8447 249.142C57.1538 238.243 57.7365 225.844 50.4233 221.026Z" fill="#77F2A1"/>
<path fill-rule="evenodd" clip-rule="evenodd" d="M31.1216 232.791C41.598 229.025 48.2287 221.776 51.3518 211.368C65.1449 214.447 59.931 239.227 63.1072 253.843C64.2399 252.814 64.1854 250.799 64.2812 249.177C64.5805 244.112 64.4026 238.038 63.8494 232.378C62.8729 222.418 61.6287 213.841 55.307 210.171C48.9283 206.468 40.6661 210.953 37.0639 214.877C33.0647 219.23 30.6182 225.429 31.1216 232.791Z" fill="#77F2A1"/>
<path opacity="0.2" d="M37.0633 214.876C40.2809 211.374 47.2089 207.438 53.2005 209.272C46.1196 209.306 40.7009 216.048 37.7478 220.652C36.2463 222.996 35.0316 225.655 33.7499 229.059C33.5406 229.615 33.2033 230.827 32.7734 232.149C32.232 232.37 31.6854 232.589 31.1223 232.791C30.6183 225.428 33.0648 219.23 37.0633 214.876Z" fill="#212529"/>
<path fill-rule="evenodd" clip-rule="evenodd" d="M0.368446 159.823C-0.295677 159.709 0.0810013 160.235 0.390091 160.222C0.35006 160.687 0.980064 160.418 1.02141 160.791C7.03594 166.215 15.0422 171.076 24.5834 174.048C34.6542 177.178 48.9841 179.241 60.1731 174.69C67.764 189.868 67.9123 212.707 67.4949 233C67.3886 238.14 67.342 243.09 67.4582 248.42C67.4917 249.941 67.2587 251.82 68.4878 252.974C70.0143 251.683 69.7367 249.209 69.82 247.501C70.1436 241.127 70.2072 234.907 70.4828 228.442C70.8563 219.624 70.6042 210.503 69.7603 201.848C68.144 185.247 63.8672 169.15 53.8876 161.382C48.2747 157.013 38.0943 153.559 28.58 153.424C16.8777 153.257 8.02951 155.954 0.368446 159.823Z" fill="#77F2A1"/>
<path opacity="0.2" d="M47.6755 161.692C40.1411 158.372 30.8558 157.159 20.7319 157.215C12.8135 157.262 7.14289 158.798 0.487202 159.765C8.12267 155.927 16.94 153.259 28.5806 153.424C38.0949 153.56 48.276 157.013 53.8882 161.383C57.1603 163.93 59.8096 167.386 61.964 171.448C58.0502 167.341 52.9662 164.021 47.6755 161.692Z" fill="#212529"/>
<path fill-rule="evenodd" clip-rule="evenodd" d="M76.6909 257.549C77.3767 257.017 77.0729 255.645 77.151 254.721C77.6957 248.381 78.5199 241.084 78.535 234.031C79.188 237.171 78.3158 241.581 79.0712 244.817C79.8022 242.223 79.4997 239.471 79.6795 236.776C80.8522 218.69 81.857 199.218 88.176 185.5C99.5724 188.078 113.186 184.065 122.244 179.808C130.626 175.868 137.29 169.905 140.889 162.867C136.313 162.301 132.424 161.382 127.754 161.313C101.449 160.937 87.1713 172.543 81.4304 191.234C78.5947 200.459 77.6865 211.203 76.565 222.711C75.6318 232.324 75.2229 242.481 75.8923 253.585C75.9632 254.822 75.7558 256.479 76.6909 257.549Z" fill="#77F2A1"/>
<path opacity="0.2" d="M135.139 164.352C124.433 163.902 114.814 165.802 107.231 168.736C96.6422 172.83 88.4385 178.61 83.2226 186.944C83.0828 186.949 82.9437 187.147 82.8321 187.262C89.327 170.919 103.369 160.965 127.754 161.314C132.425 161.383 136.313 162.302 140.889 162.868C140.567 163.499 140.215 164.115 139.844 164.727C139.823 164.725 139.798 164.725 139.776 164.724C138.22 164.686 136.624 164.416 135.139 164.352Z" fill="#212529"/>
<path fill-rule="evenodd" clip-rule="evenodd" d="M19.4594 180.105C21.7464 188.68 28.2991 193.749 34.6128 197.979C40.9896 202.249 48.7983 206.055 59.1002 205.58C63.4603 216.993 61.7567 233.433 63.2214 248.025C63.2778 248.621 62.8677 250.009 63.9308 250.194C64.9887 250.037 64.5523 248.244 64.5916 247.358C65.2945 232.196 64.9421 213.294 60.0635 200.727C54.28 185.832 39.8307 178.087 19.4594 180.105Z" fill="#77F2A1"/>
<path opacity="0.2" d="M60.0636 200.728C60.6719 202.289 61.2061 203.95 61.6812 205.691C59.4454 201.861 56.8959 198.436 53.5818 195.638C46.9609 190.05 39.3366 185.788 29.8885 183.796C26.6559 183.114 23.2827 182.675 20.1268 182.166C19.8794 181.499 19.6484 180.819 19.4594 180.105C39.8307 178.088 54.28 185.832 60.0636 200.728Z" fill="#212529"/>
<path fill-rule="evenodd" clip-rule="evenodd" d="M82.1759 254.676C82.9404 254.112 82.7206 253.019 82.8551 252.241C83.8736 246.465 84.0429 239.451 85.129 233.306C86.3713 226.252 87.9161 219.671 90.6074 214.212C98.172 213.113 104.924 210.088 110.731 206.809C119.353 201.944 126.315 195.486 130.629 186.804C120.729 184.478 109.744 188.502 103.02 193.171C97.3011 197.148 92.4843 201.909 89.2903 207.865C84.2988 217.173 82.7442 228.697 81.9383 241.876C81.6791 246.067 81.0911 250.483 82.1759 254.676Z" fill="#77F2A1"/>
<path opacity="0.2" d="M88.5527 213.311C87.584 214.649 86.704 216.404 85.4296 217.609C86.4179 214.143 87.6687 210.885 89.2903 207.865C92.4843 201.91 97.3011 197.148 103.02 193.171C109.744 188.502 120.729 184.478 130.629 186.804C130.351 187.362 130.064 187.91 129.765 188.448C125.475 189.433 121.734 190.557 118.626 191.802C106.285 196.742 95.3343 203.938 88.5527 213.311Z" fill="#212529"/>
<path fill-rule="evenodd" clip-rule="evenodd" d="M85.845 247.684C86.7369 246.903 86.7421 245.515 86.8865 244.431C87.3413 240.972 87.5578 237.222 88.365 233.746C89.875 227.223 92.649 221.138 98.6622 218.617C99.7372 229.728 103.544 237.822 111.065 241.834C116.636 233.059 112.579 215.586 102.711 215.215C101.352 215.162 98.8368 215.623 97.3418 216.278C89.1978 219.865 85.6147 231.555 85.2065 242.908C85.1455 244.536 84.6985 246.388 85.845 247.684Z" fill="#77F2A1"/>
<path opacity="0.2" d="M110.035 233.274C109.257 226.953 106.057 220.243 102.226 217.639C100.643 216.563 99.0888 216.48 97.2545 216.323C97.2828 216.31 97.3097 216.291 97.3392 216.278C98.8341 215.623 101.349 215.162 102.708 215.215C112.576 215.586 116.634 233.06 111.063 241.834C110.777 241.681 110.505 241.512 110.231 241.347C109.987 238.726 110.367 235.946 110.035 233.274Z" fill="#212529"/>
<path fill-rule="evenodd" clip-rule="evenodd" d="M125.715 104.147C113.102 109.218 102.707 116.311 94.8447 125.696C86.9501 135.114 81.0431 146.154 78.2738 160.152C76.8471 167.367 76.7375 175.362 76.4133 183.276C75.5897 203.106 75.3869 223.483 75.425 244.194C75.4283 247.277 75.4033 250.266 75.6908 253.592C75.7525 254.316 75.3108 255.785 76.4199 256.16C76.4993 255.804 76.9698 254.458 77.0026 255.731C79.0757 256.077 78.6603 253.349 78.8362 252.238C80.5903 241.059 79.5791 226.806 79.7733 214.548C80.0043 200.191 81.0543 185.541 81.4756 172.008C95.9315 167.858 107.818 159.785 116.278 148.666C124.129 138.338 130.902 122.061 125.715 104.147Z" fill="#77F2A1"/>
<path opacity="0.2" d="M95.3828 136.481C87.6338 147.787 81.0129 160.307 77.6162 175.204C77.2408 176.856 77.2388 178.829 76.5294 180.238C76.7617 174.015 76.9927 167.818 77.9443 162.047C80.6684 151.636 84.1951 142.034 88.985 133.599C90.7858 130.835 92.7421 128.205 94.8434 125.697C102.705 116.311 113.1 109.218 125.714 104.148C125.867 104.679 126.01 105.213 126.144 105.739C125.33 106.368 124.292 106.807 123.659 107.254C112.111 115.385 103.191 125.079 95.3828 136.481Z" fill="#212529"/>
<path fill-rule="evenodd" clip-rule="evenodd" d="M69.2229 141.815C68.8974 141.768 68.8843 142.017 68.6296 142.037C67.5396 152.02 68.7412 162.24 68.6047 172.451C68.4682 182.61 68.7727 192.806 68.3757 202.674C67.6728 220.077 66.8939 236.882 67.0402 254.742C67.0619 257.131 66.8276 259.698 67.8756 261.918C69.6179 260.419 69.4139 257.71 69.6829 255.658C70.5518 248.94 70.8524 241.435 71.1864 233.8C72.4405 205.123 74.0483 171.796 69.444 142.411C69.492 142.085 69.2445 142.071 69.2229 141.815Z" fill="#77F2A1"/>
<path fill-rule="evenodd" clip-rule="evenodd" d="M65.7197 95.0311C62.0769 101.879 57.4943 114.74 57.4943 125.83C57.4943 132.694 59.3895 139.757 63.7149 143.432C65.6384 145.061 68.7798 146.566 72.3426 145.83C79.3159 144.388 82.2028 136.39 81.5728 127.034C80.8522 116.32 74.5397 105.977 68.9308 98.8307C67.5238 97.0379 66.9752 95.9384 65.7197 95.0311Z" fill="#77F2A1"/>
<path fill-rule="evenodd" clip-rule="evenodd" d="M60.9076 115.83C60.1372 116.754 59.5341 121.388 61.5074 121.43C62.816 120.342 62.371 117.13 61.5074 115.83C61.3066 115.83 61.1071 115.83 60.9076 115.83Z" fill="#77F2A1"/>
<path fill-rule="evenodd" clip-rule="evenodd" d="M60.3032 125.429C60.0355 127.176 60.2468 136.404 63.3128 135.229C63.9408 133.639 63.2629 130.266 62.9124 127.83C62.7563 126.741 62.5174 125.782 61.9058 125.029C61.1438 124.933 60.6287 125.085 60.3032 125.429Z" fill="#77F2A1"/>
<path opacity="0.65" fill-rule="evenodd" clip-rule="evenodd" d="M70.2394 116.004C67.9852 115.597 67.4852 119.113 67.1682 122.129C66.6018 127.509 66.4109 133.186 66.7081 139.423C66.8473 142.372 67.2181 145.881 69.0123 146.002C71.3426 146.158 71.3793 142.519 71.7764 139.728C72.4871 134.725 73.0803 128.511 72.6984 122.895C72.5252 120.41 72.3519 116.39 70.2394 116.004Z" fill="#77F2A1"/>
<path fill-rule="evenodd" clip-rule="evenodd" d="M41.0329 249.041C41.0907 246.784 41.008 243.749 42.4012 242.948C42.9111 242.659 43.9178 242.54 45.0676 242.491V242.479L45.8334 242.464H45.8485L96.677 241.469V241.476C97.6404 241.446 98.5788 241.446 99.4858 241.541C102.404 241.832 102.289 244.132 102.27 247.251C102.241 250.009 102.67 253.191 101.074 254.223C99.7535 255.071 96.3351 254.905 96.3351 254.905C95.5712 265.314 94.4235 275.933 93.5441 286.604C93.2836 289.77 93.3 295.197 91.8182 296.543C90.4098 297.821 54.112 298.647 52.6689 297.45C51.699 296.65 51.6327 295.028 51.3951 292.893C49.9698 280.337 48.463 267.681 46.9517 255.721C44.9317 255.649 43.3803 255.88 42.3474 255.221C40.9535 254.342 40.9864 251.168 41.0329 249.041Z" fill="#4F76F6"/>
<path opacity="0.2" fill-rule="evenodd" clip-rule="evenodd" d="M46.951 255.721L96.0871 258.124L96.3378 254.904L46.951 255.721Z" fill="#212529"/>
<path d="M208.803 216.197C205.775 215.997 201.065 217.525 199.881 215.196C198.904 213.27 200.712 208.915 201.523 206.686C203.437 201.448 206.85 195.589 211.623 193.411C216.804 191.057 223.598 190.675 230.414 189.908C237.522 189.107 244.671 187.925 250.614 187.907C251.744 187.137 251.612 185.617 252.021 184.4C257.714 167.293 265.184 149.152 272.687 133.824C276.965 125.081 281.271 117.314 288.189 111.538C295.099 105.773 304.911 103.005 316.61 102.278C326.723 101.64 334.895 103.652 335.866 113.042C336.627 120.42 333.974 128.316 332.107 134.573C326.586 153.077 317.502 172.499 311.208 188.406C321.046 188.621 320.058 201.804 319.427 211.69C318.642 212.688 317.363 213.164 315.433 212.942C318.457 236.968 332.375 299.64 332.556 300.999H327.168C327.06 300.001 311.303 237.343 307.444 213.194C294.111 213.583 278.718 213.945 264.47 214.195C263.277 217.806 252.2 279.326 248.856 300.999H243.864C246.457 276.213 252.861 239.097 255.306 214.446C243.121 214.308 229.601 214.911 217.495 215.701C210.044 235.874 188.498 297.758 187.322 301H182.211C189.804 276.864 201.27 240.512 208.803 216.197ZM304.866 187.651C309.179 176.357 314.117 164.884 319.19 152.101C322.474 143.83 326.57 133.851 328.583 123.807C329.687 118.307 330.971 110.282 326 109.536C314.341 133.497 306.203 161.207 296.644 187.407C299.53 187.336 301.867 187.847 304.866 187.651ZM290.067 187.153C299.677 160.841 307.654 132.796 319.66 109.032C316.566 108.826 314.334 109.531 311.438 109.535C302.36 134.909 293.524 160.539 285.606 187.152H290.067V187.153ZM279.031 187.153C284.653 167.642 291.386 147.957 297.82 129.567C299.795 123.912 302.011 118.449 303.69 113.043C303.834 112.582 304.961 111.498 303.925 111.035C301.676 111.642 299.462 112.288 297.585 113.291C291.216 138.801 282.28 161.573 275.974 187.154H279.031V187.153ZM269.396 187.153C275.29 163.474 283.507 140.931 289.837 118.549C281.982 127.497 276.861 139.146 271.749 150.849C266.572 162.69 262.034 175.191 257.423 187.406C261.669 187.59 265.187 187.003 269.396 187.153Z" fill="#212529"/>
<path fill-rule="evenodd" clip-rule="evenodd" d="M263.209 23.889C264.77 29.3062 262.139 30.8936 263.75 34.5147C264.709 36.6686 268.458 36.6686 269.637 39.2065C270.672 41.4382 269.232 43.8485 269.646 46.0855C270.066 48.3886 274.305 51.0887 272.351 54.7607C271.268 56.7904 267.695 56.2292 265.179 57.1776C261.777 58.4622 261.214 63.9441 254.786 63.1429C252.803 62.8943 250.301 60.9111 249.788 59.1346C248.856 55.8897 250.938 53.1334 251.185 50.5948C251.346 48.9406 251.013 46.7906 250.194 45.1515C249.332 43.4332 246.631 41.9399 245.515 39.3556C244.81 37.7263 245.011 35.5063 244.295 33.735C243.026 30.6013 240.143 28.2073 239.264 25.7983C237.048 19.7054 240.637 13.8847 245.991 12.9892C256.232 11.2755 261.75 18.8427 263.209 23.889Z" fill="#212529"/>
<path fill-rule="evenodd" clip-rule="evenodd" d="M234.568 8.7304C235.425 8.48381 237.782 7.95073 239.488 8.30459C242.221 8.87757 245.858 11.3939 246.225 13.9402C246.412 15.2419 244.733 18.1388 244.062 20.069C240.379 30.7091 237.067 40.2968 234.591 51.4902C233.934 54.4487 233.249 58.056 232.693 61.5547C232.271 64.2214 231.258 67.2198 228.625 68.2022C224.95 69.5732 222.076 67.851 220.274 66.0202C219.076 64.7964 218.365 63.5765 217.035 63.3809C214.849 63.0565 213.088 64.7833 210.663 64.6472C208.655 64.5295 206.761 62.5862 206.228 60.813C205.701 59.0646 206.341 56.462 206.06 55.0733C205.281 51.239 202.238 50.7027 201.939 46.0155C201.706 42.3768 203.839 39.6584 205.392 38.0801C207.136 36.3036 210.114 35.325 210.95 33.1698C211.883 30.7543 210.727 27.8985 211.229 25.3704C211.87 22.1504 214.538 18.7367 218.921 17.7169C220.635 17.316 222.398 17.5894 224.16 16.8378C227.14 15.5696 228.142 12.288 230.849 10.3499C231.875 9.61604 233.067 9.16603 234.568 8.7304Z" fill="#212529"/>
<path fill-rule="evenodd" clip-rule="evenodd" d="M218.859 40.493C219.606 36.0263 220.234 31.7302 221.289 27.4243C221.915 24.8695 222.397 22.6017 223.186 21.3302C224.871 18.617 228.453 16.2198 233.242 15.6932C240.185 14.9299 247.956 19.1468 250.145 25.6864C251.12 28.6056 250.834 30.6451 250.348 33.0044C253.252 32.1946 256.819 32.4052 257.788 34.7809C259.021 37.844 256.303 40.6297 254.452 42.019C253.605 42.6561 252.578 42.8779 252.084 43.5189C251.617 44.135 251.345 46.4459 251.388 47.3466C251.589 52.0554 254.776 64.7814 254.776 64.7814C254.955 65.8508 254.972 66.8542 254.873 67.8059C253.5 67.49 252.08 67.3061 250.623 67.3061C244.185 67.3061 238.405 70.5825 234.87 75.5209C233.928 74.6385 233.214 73.5108 232.85 72.1085C232.85 72.1085 231.364 64.4648 230.533 61.4566C226.733 61.4102 222.992 59.8476 220.551 56.3639C219.209 54.4585 217.99 50.602 217.968 47.3721C217.957 45.5688 218.419 43.1356 218.859 40.493Z" fill="#FCD2C0"/>
<path fill-rule="evenodd" clip-rule="evenodd" d="M239.02 37.2697C237.882 36.0577 236.764 35.4932 235.757 35.2963C233.497 35.2584 232.781 36.4057 232.781 36.4057C232.781 36.4057 232.757 37.0643 234.414 38.1213C234.654 38.19 234.912 38.2502 235.19 38.2973C237.092 38.6191 239.02 37.2697 239.02 37.2697Z" fill="white"/>
<path fill-rule="evenodd" clip-rule="evenodd" d="M231.667 36.3743C231.667 36.3743 233.394 34.8359 235.757 35.2997C235.825 35.4782 235.991 35.8478 236.004 36.0578C236.039 36.9853 235.376 37.8029 234.416 38.1142C232.438 37.5563 231.667 36.3743 231.667 36.3743Z" fill="#212529"/>
<path d="M239.541 35.1308C236.811 32.5648 232.885 33.2464 231.515 33.9469L230.89 32.7382C233.066 31.6288 237.484 31.3175 240.482 34.1405L239.541 35.1308Z" fill="#212529"/>
<path fill-rule="evenodd" clip-rule="evenodd" d="M226.734 35.8111C225.68 34.6848 224.645 34.1596 223.711 33.9751C221.594 34.1955 220.693 34.9719 220.693 34.9719C220.693 34.9719 220.954 35.6862 222.462 36.5987C222.686 36.6628 222.926 36.7177 223.184 36.7622C224.948 37.0611 226.734 35.8111 226.734 35.8111Z" fill="white"/>
<path fill-rule="evenodd" clip-rule="evenodd" d="M219.915 34.9718C219.915 34.9718 221.513 33.5478 223.711 33.9749C223.772 34.1489 223.923 34.4851 223.935 34.6755C223.976 35.5448 223.352 36.3048 222.462 36.5978C220.624 36.0706 219.915 34.9718 219.915 34.9718Z" fill="#212529"/>
<path d="M227.187 33.8638C224.673 31.5032 221.057 32.1252 219.791 32.7675L219.166 31.5555C221.199 30.5142 225.32 30.2342 228.124 32.8682L227.187 33.8638Z" fill="#212529"/>
<path opacity="0.13" fill-rule="evenodd" clip-rule="evenodd" d="M243.321 55.2441C243.368 58.7624 237.652 64.3 231.246 64.7853L230.533 61.456C236.151 60.8895 240.364 57.9945 243.321 55.2441Z" fill="#212529"/>
<path fill-rule="evenodd" clip-rule="evenodd" d="M236.893 45.5525C238.625 49.046 234.521 53.2295 229.547 53.6331C227.74 53.7803 224.606 53.032 223.973 51.1234C222.873 47.7908 226.169 47.6416 228.953 46.8947C231.659 46.1654 235.441 42.6241 236.893 45.5525Z" fill="white"/>
<path opacity="0.13" fill-rule="evenodd" clip-rule="evenodd" d="M228.898 45.4551C221.231 44.6258 226.789 38.9254 228.366 35.8525C228.457 35.6804 228.49 35.339 228.747 35.2716C230.152 34.8955 229.777 42.6589 228.898 45.4551Z" fill="#212529"/>
<path d="M231.298 14.0567C230.458 16.3578 230.595 18.9591 231.687 21.1771C232.771 23.3893 234.793 25.205 237.229 26.1456C238.636 26.6872 240.297 27.0378 241.097 28.2315C241.926 29.4664 241.465 31.0676 241.799 32.485C242.068 33.6473 242.913 34.6867 244.05 35.2629C245.186 35.8274 246.595 35.9236 247.804 35.5063C247.876 36.197 247.95 36.9067 248.24 37.5529C248.531 38.2005 249.077 38.7833 249.8 38.9932C250.71 39.2496 251.738 38.8225 252.366 38.1553C252.993 37.4914 253.3 36.6156 253.519 35.7568C254.953 30.1146 253.114 23.8582 248.77 19.6642C244.44 15.4656 237.746 13.4477 231.547 14.4773" fill="#212529"/>
<path fill-rule="evenodd" clip-rule="evenodd" d="M234.6 7.72705C238.693 6.63799 244.896 7.40263 246.25 11.719C247.294 15.0502 244.587 20.0913 241.08 21.3132C237.891 22.4225 234.531 21.5519 231.569 22.9039C228.978 24.0858 228.129 27.3393 226.252 28.066C224.045 28.917 221.599 28.2033 220.208 28.8888C217.907 30.0296 218.676 33.6473 216.115 34.2183C211.578 35.2283 210.073 26.0677 211.359 22.5729C212.039 20.7205 215.193 18.01 217.808 17.0367C220.237 16.1328 222.693 16.4042 225.063 15.0816C228.725 13.0317 228.926 10.4193 231.586 8.78864C232.401 8.28892 233.671 7.97561 234.6 7.72705Z" fill="#212529"/>
<path opacity="0.2" fill-rule="evenodd" clip-rule="evenodd" d="M183.022 151.973C204.12 147.659 231.215 148.313 254.95 149.549C255.678 149.706 255.291 149.109 254.95 149.107C247.605 144.371 238.517 140.447 229.058 136.753C219.604 133.065 209.625 128.492 198.958 127.71C191.671 127.175 185.33 129.361 182.579 133.664C179.6 138.323 180.671 146.462 183.022 151.973Z" fill="#212529"/>
<path fill-rule="evenodd" clip-rule="evenodd" d="M179.701 182.196C172.805 181.632 165.877 184.083 164.871 189.918C163.951 195.282 168.052 199.527 171.072 201.61C175.18 204.444 181.65 206.457 188.776 205.357C194.164 204.528 198.405 202.096 203.162 201.828C209.235 201.489 216.163 203.68 220.647 201.167C222.92 199.891 225.335 196.531 225.074 193.006C224.7 187.974 219.413 185.359 213.566 185.284C208.802 185.226 204.634 186.706 200.065 186.388C192.158 185.834 187.241 182.233 180.145 182.196C179.998 182.196 179.849 182.207 179.701 182.196Z" fill="#77F2A1"/>
<path fill-rule="evenodd" clip-rule="evenodd" d="M298.553 171.607C298.538 170.453 297.022 170.405 296.34 170.064C286.155 164.962 276.17 159.927 265.797 154.403C264.167 153.535 262.164 152.487 260.264 151.533C258.399 150.599 256.377 149.311 254.731 148.886C252.731 148.371 250.228 148.425 247.87 148.223C245.606 148.032 243.301 147.76 241.009 147.563C227.566 146.415 211.543 145.699 197.188 147.341C188.287 148.359 179.597 150.167 173.948 153.74C169.017 156.855 164.605 162.402 167.528 169.842C170.603 177.667 180.802 182.912 189.439 185.726C199.07 188.864 209.505 190.501 221.089 191.905C232.489 193.282 244.991 194.106 256.723 194.108C277.572 194.108 294.389 188.335 298.553 171.607Z" fill="#043873"/>
<path fill-rule="evenodd" clip-rule="evenodd" d="M222.933 133.247C218.191 130.346 212.84 128.329 207.533 126.699C206.294 126.32 205.049 125.954 203.805 125.578C208.042 117.384 212.042 109.06 216.238 100.846C220.591 104.453 225.36 107.645 229.917 110.991C232.663 113.003 235.887 113.817 239.155 113.724C235.252 121.277 231.133 128.752 226.235 135.781C225.236 134.843 224.139 133.985 222.933 133.247Z" fill="#FCD2C0"/>
<g opacity="0.13">
<g opacity="0.13">
<path opacity="0.13" fill-rule="evenodd" clip-rule="evenodd" d="M222.933 133.247C218.191 130.346 212.84 128.329 207.533 126.699C206.294 126.32 205.049 125.954 203.805 125.578C208.042 117.384 212.042 109.06 216.238 100.846C220.591 104.453 225.36 107.645 229.917 110.991C232.663 113.003 235.887 113.817 239.155 113.724C235.252 121.277 231.133 128.752 226.235 135.781C225.236 134.843 224.139 133.985 222.933 133.247Z" fill="#212529"/>
</g>
</g>
<path fill-rule="evenodd" clip-rule="evenodd" d="M208.972 112.983C216.49 118.966 224.958 123.16 233.521 127.176C237.682 121.337 241.708 114.767 244.289 107.161C246.773 99.8451 248.796 91.2857 245.847 82.4961C244.218 77.6388 240.356 72.8044 234.417 75.3789C230.918 76.9003 228.113 80.6306 225.807 83.6021C219.064 92.2996 212.676 103.627 208.972 112.983Z" fill="#77F2A1"/>
<path opacity="0.13" fill-rule="evenodd" clip-rule="evenodd" d="M248.976 149.108C259.879 155.046 272.298 160.629 284.61 166.535C286.362 167.376 288.461 168.445 290.584 169.404C292.83 170.415 294.966 171.683 297.224 171.607C297.436 171.603 297.339 171.379 297.888 171.387C302.677 171.478 304.546 162.904 305.635 157.488C306.927 151.073 306.567 144.02 306.077 138.298C305.004 125.8 301.706 114.867 298.11 105.208C294.649 95.9153 290.212 86.172 283.502 78.7369C276.936 71.4621 268.235 65.1731 257.164 64.1775C255.406 64.0199 252.518 64.222 250.747 64.6177C241.931 66.6029 235.229 71.2005 231.49 78.2948C225.129 90.3771 230.295 105.835 235.696 115.577C240.158 123.623 244.524 130.027 246.985 139.843C247.746 142.883 248.877 145.97 248.976 149.108Z" fill="#212529"/>
<path fill-rule="evenodd" clip-rule="evenodd" d="M254.998 56.7125C254.111 56.6909 251.962 56.9558 250.397 57.6877C247.13 59.2091 243.957 62.267 240.035 65.6166C236.983 68.2225 231.051 72.1692 232.323 75.3527C233.307 77.816 237.424 76.3757 240.941 75.4253C248.246 73.4454 252.818 72.7318 260.417 70.8094C263.011 70.152 267.586 68.5776 267.837 66.9169C268.365 63.4123 259.963 57.9997 257.731 57.1239C257.026 56.8485 255.927 56.736 254.998 56.7125Z" fill="#77F2A1"/>
<path fill-rule="evenodd" clip-rule="evenodd" d="M148.704 105.761C155.35 104.145 161.346 106.705 167.284 108.538C172.923 110.278 178.415 111.95 183.734 114.056C195.032 118.539 205.268 123.751 214.862 128.224C219.618 119.188 224.007 109.945 228.655 100.846C233.008 104.453 237.775 107.645 242.334 110.991C245.079 113.003 248.304 113.817 251.574 113.724C247.17 122.249 242.489 130.678 236.723 138.479C233.834 142.388 229.718 148.007 225.17 150.546C215.385 156.011 205.614 150.185 198.862 146.796C192.035 143.368 185.728 139.319 179.783 135.288C174.288 131.563 167.921 127.181 161.407 122.868C157.051 119.985 152.037 116.757 147.5 113.529C143.651 110.791 143.797 106.96 148.704 105.761Z" fill="#FCD2C0"/>
<path fill-rule="evenodd" clip-rule="evenodd" d="M140.141 108.495C139.077 108.732 135.387 108.844 133.734 109.495C133.093 109.745 132.412 110.227 132.507 110.825C132.711 112.077 135.613 111.723 136.641 111.74C138.422 111.762 139.658 111.888 141.181 111.868C140 112.297 136.424 112.388 134.35 113.077C133.484 113.369 132.542 113.855 132.705 114.617C132.903 115.583 135.318 115.562 136.132 115.579C140.045 115.668 144.407 115.794 147.495 116.477C151.039 117.262 154.001 118.415 157.053 120.231C157.79 120.668 159.179 121.912 160.023 121.76C160.424 121.689 161.18 120.949 161.42 120.628C162.234 119.532 162.774 117.978 163.533 116.071C163.826 115.342 164.145 114.634 164.382 113.668C164.578 112.883 165.053 111.587 164.981 111.202C164.872 110.599 163.735 109.64 163.051 109.081C161.06 107.452 158.086 105.387 156.404 104.083C154.942 102.955 153.412 101.768 152.026 100.663C150.713 99.615 146.425 96.1444 144.852 97.6364C143.558 98.8634 148.118 101.731 148.884 102.893C146.564 102.178 142.638 101.611 138.585 101.985C137.521 102.086 135.278 102.184 135.179 103.114C135.041 104.391 136.831 104.376 137.649 104.528C138.785 104.74 139.607 105.005 140.61 105.014C139.18 105.404 135.858 105.429 134.234 106.125C133.704 106.35 133.151 106.82 133.205 107.291C133.336 108.372 135.095 108.146 136.273 108.218C137.881 108.314 138.916 108.482 140.027 108.528C140.06 108.513 140.1 108.506 140.141 108.495Z" fill="#FCD2C0"/>
<path opacity="0.2" fill-rule="evenodd" clip-rule="evenodd" d="M221.388 112.983C228.906 118.966 237.376 123.16 245.937 127.176C250.1 121.337 254.124 114.767 256.707 107.161C259.191 99.8451 261.212 91.2857 258.267 82.4961C256.636 77.6388 252.773 72.8044 246.837 75.3789C243.338 76.9003 240.53 80.6306 238.227 83.6021C231.483 92.2996 225.093 103.627 221.388 112.983Z" fill="white"/>
</svg>
