<svg width="460" height="489" viewBox="0 0 460 489" fill="none" xmlns="http://www.w3.org/2000/svg">
<path d="M276.328 389.808C279.452 389.587 284.314 391.288 285.538 388.691C286.547 386.542 284.681 381.687 283.842 379.198C281.867 373.358 278.342 366.826 273.415 364.396C268.066 361.769 261.053 361.345 254.017 360.487C246.673 359.597 239.297 358.276 233.16 358.256C231.994 357.396 232.126 355.705 231.708 354.346C225.827 335.268 218.118 315.038 210.37 297.94C205.95 288.19 201.505 279.525 194.362 273.088C187.231 266.656 177.099 263.57 165.021 262.754C154.577 262.048 146.14 264.292 145.138 274.762C144.352 282.991 147.091 291.797 149.019 298.779C154.72 319.411 164.099 341.076 170.596 358.816C160.436 359.053 161.458 373.759 162.112 384.784C162.924 385.893 164.239 386.426 166.234 386.179C163.113 412.974 160.029 440.311 156.774 467.159C156.601 468.613 156.348 470.117 156.162 471.635H161.722C161.835 470.521 161.945 469.386 162.113 468.275C166.133 441.55 170.499 413.393 174.483 386.459C188.247 386.891 204.141 387.301 218.854 387.577C220.085 391.603 220.169 395.914 220.794 400.14C224.227 423.375 227.735 447.462 231.189 471.635H236.342C233.665 443.992 230.84 415.347 228.313 387.855C240.898 387.698 254.856 388.375 267.352 389.253C275.046 411.751 283.421 437.329 291.361 461.575C292.33 464.537 293.506 468.019 294.721 471.635H300C292.158 444.717 284.105 416.926 276.328 389.808ZM177.146 357.973C172.693 345.379 167.594 332.578 162.356 318.326C158.964 309.099 154.736 297.972 152.657 286.771C151.518 280.636 150.191 271.686 155.323 270.853C167.359 297.574 175.763 328.482 185.635 357.699C182.655 357.621 180.243 358.19 177.146 357.973ZM192.425 357.414C182.503 328.072 174.265 296.793 161.869 270.295C165.066 270.061 167.371 270.847 170.36 270.853C179.733 299.15 188.856 327.736 197.033 357.414H192.425ZM203.821 357.414C198.014 335.658 191.067 313.702 184.421 293.191C182.38 286.886 180.093 280.795 178.36 274.762C178.211 274.25 177.049 273.041 178.115 272.524C180.436 273.201 182.726 273.922 184.662 275.042C191.239 303.492 200.464 328.888 206.973 357.414H203.821ZM213.767 357.414C207.682 331.008 199.197 305.869 192.663 280.905C200.773 290.885 206.058 303.876 211.338 316.929C216.683 330.133 221.367 344.074 226.13 357.699C221.744 357.907 218.11 357.249 213.767 357.414Z" fill="#4F76F6"/>
<path d="M201.855 143.852L201.877 146.109C201.908 149.357 199.3 152.018 196.049 152.05L28.5853 153.643C25.3339 153.674 22.6737 151.063 22.6452 147.814L22.6225 145.559L201.855 143.852Z" fill="#77F2A1"/>
<path d="M21.526 33.6604C21.4977 30.41 24.107 27.749 27.357 27.7189L194.82 26.125C198.07 26.0948 200.732 28.7042 200.761 31.9559L201.855 149.854L22.6219 151.56L21.526 33.6604Z" fill="#77F2A1"/>
<path opacity="0.75" d="M197.227 146.875L196.176 36.2043C196.144 33.1213 193.621 30.6458 190.538 30.6748L31.725 32.1871C28.6421 32.215 26.1681 34.739 26.1973 37.821L27.2512 148.494L197.227 146.875Z" fill="white"/>
<path d="M26.2755 32.6981L108.763 97.8624C111.403 99.9478 115.153 99.8604 117.693 97.6543L194.758 30.7152" stroke="#77F2A1" stroke-width="5"/>
<path opacity="0.42" fill-rule="evenodd" clip-rule="evenodd" d="M273.125 68.2903C272.743 68.3374 271.412 68.8459 270.827 69.145C268.638 70.2704 266.64 71.9544 264.609 73.6167C254.622 81.7942 246.464 88.4651 236.508 96.9973C234.777 98.4781 233.179 99.7628 231.056 101.756C229.188 103.512 227.487 105.623 228.199 107.415C229.03 109.506 232.139 109.906 233.995 110.215C240.602 111.306 247.355 111.096 253.969 111.649C260.342 112.175 266.777 113.199 273.807 113.458C275.798 113.527 279.132 113.882 280.833 112.254C282.863 110.303 279.994 103.025 278.991 99.8492C277.828 96.1679 277.139 93.3111 275.868 89.8976C275.461 88.8163 274.59 87.82 274.29 86.66C274.021 85.6527 274.588 83.7317 274.829 82.1748C275.299 79.1081 275.543 76.355 275.647 73.316C275.699 71.9401 275.847 67.9745 273.125 68.2903Z" fill="white"/>
<path fill-rule="evenodd" clip-rule="evenodd" d="M283.051 91.929C282.701 90.6248 281.359 90.305 280.513 89.7416C279.614 89.1426 278.779 88.4394 277.772 87.8039C276.151 86.7607 273.754 84.8833 271.925 84.8674C271.167 84.8655 269.523 85.4319 268.522 85.7378C264.837 86.8573 261.314 88.9577 257.704 90.8128C248.761 95.4102 238.622 100.09 230.222 105.583C229.673 105.94 228.442 106.462 228.668 107.055C229.031 108 230.633 107.42 231.691 107.138C247.632 102.865 264.333 96.7046 279.961 93.1278C281.005 92.893 282.358 93.0118 283.051 91.929Z" fill="#77F2A1"/>
<path d="M451.805 156.284C435.943 131.534 376.619 94.024 344.908 128.759C317.418 158.87 349.998 186.746 373.238 167.611C396.478 148.476 373.026 62.3111 289.67 87.2148" stroke="#003294" stroke-width="5" stroke-linecap="round" stroke-dasharray="11 11"/>
<path fill-rule="evenodd" clip-rule="evenodd" d="M301.402 345.651C301.207 342.74 300.475 340.195 300.909 336.391C301.309 332.848 302.673 327.541 305.728 327.744C308.79 327.954 309.456 332.731 309.346 335.457C309.109 341.62 306.252 346.42 304.483 350.519C305.737 353.105 307.052 355.645 308.468 358.097C308.902 354.31 309.246 350.37 310.137 346.658C310.825 343.791 312.404 339.453 315.273 339.787C318.508 340.161 318.264 345.997 317.632 349.435C316.563 355.232 313.672 359.912 310.978 363.426C312.459 366.966 313.86 370.58 315.485 374.01C316.549 367.674 317.678 362.047 320.85 357.619C321.821 356.265 323.241 354.788 324.956 355.142C327.147 355.593 327.359 358.697 326.81 361.608C325.512 368.498 320.639 374.669 317.197 378.727C318.049 381.684 319.195 384.4 320.015 387.384C321.891 381.645 323.531 375.511 327.098 371.19C328.189 369.865 329.565 368.101 331.41 368.391C333.662 368.745 334.057 372.048 333.647 374.552C332.422 382.118 325.571 387.04 321.308 391.185C323.721 400.679 327.464 412.195 327.908 424.239C327.991 426.518 328.242 429.465 325.98 428.875C324.604 428.516 325.068 426.472 325.046 424.949C324.987 420.481 324.009 415.585 323.577 412.105C318.731 413.284 313.993 411.585 310.052 408.979C308.422 407.901 304.831 405.661 305.465 403.589C306.268 400.988 312.729 404.504 314.141 405.111C317.411 406.497 319.963 407.566 322.737 408.883C322.456 405.679 321.202 401.902 320.456 398.545C315.193 400.565 308.081 398.74 303.232 395.861C301.597 394.892 298.103 392.421 298.857 390.149C299.83 387.226 306.789 390.22 309.007 390.974C312.735 392.233 316.034 393.146 319.201 394.41C318.049 389.977 316.578 385.802 315.121 381.613C310.602 383.35 302.111 382.267 297.668 379.422C296.292 378.539 294.323 377.272 294.828 375.447C295.562 372.785 301.872 374.947 304.2 375.488C307.992 376.374 310.864 377.106 313.66 377.794C312.533 374.168 310.959 370.903 309.641 367.431C306.481 370.105 299.908 370.007 294.713 367.448C292.658 366.436 287.349 363.403 288.074 360.255C288.935 356.507 297.053 359.391 300.206 360.44C303.066 361.389 305.776 362.363 307.831 363.578C306.011 359.208 303.925 355.06 301.641 351.056C296.114 352.73 285.252 350.453 281.541 347.691C280.416 346.854 278.664 344.851 278.935 343.226C279.528 339.625 286.492 342.123 289.2 343.021C292.904 344.248 296 345.69 299.162 346.949C298.484 345.314 297.305 343.75 296.078 342.079C294.946 340.539 293.757 338.541 292.272 337.475C290.771 336.394 288.903 335.791 287.348 334.996C284.218 333.383 281.326 331.536 279.037 328.825C277.895 327.483 276.478 325.746 277.193 323.755C277.752 322.184 279.591 321.52 281.865 322.379C284.998 323.572 287.274 326.654 289.243 329.138C290.758 331.049 292.403 332.923 293.772 335.043C294.199 335.714 294.445 336.595 294.899 337.258C295.899 338.715 297.388 339.93 298.43 341.311C299.589 342.865 300.421 344.383 301.402 345.651Z" fill="#77F2A1"/>
<path d="M366.556 366.554C367.586 365.69 368.691 364.866 369.757 364.065C371.809 362.528 373.746 361.079 375.174 359.4C377.209 357.004 378.031 354.952 377.695 353.122C377.344 351.233 376.109 350.953 375.406 350.953C373.483 350.953 371.202 352.946 370.953 353.171C367.766 356.028 365.404 359.625 363.294 364.819C362.157 365.868 361.008 367.088 359.902 368.264C359.126 369.086 358.384 369.882 357.665 370.592C357.745 368.762 357.811 366.718 357.636 364.475C357.512 362.814 357.116 357.758 354.279 357.758C351.6 357.802 350.953 362.262 350.983 364.617C351.046 369.151 352.108 373.269 353.735 375.372C353.227 375.989 352.756 376.709 352.298 377.41C351.922 377.986 351.556 378.547 351.193 379.015C350.856 376.973 350.502 375.382 349.705 373.374C348.251 369.734 346.494 368.165 344.691 368.753C343.305 369.202 343.22 371.549 343.395 373.435C343.717 376.88 345.244 382.224 348.185 383.907C347.67 384.695 347.231 385.542 346.802 386.364C346.695 386.571 346.585 386.779 346.475 386.989C345.953 385.301 345.25 383.786 344.413 382.068C344.323 381.878 344.225 381.656 344.11 381.407C343.271 379.531 341.938 376.625 339.808 376.995C339.286 377.085 338.857 377.356 338.573 377.776C337.936 378.72 338.163 380.243 338.432 381.468C339.352 385.64 341.279 389.102 344.166 391.76C342.785 394.925 341.524 398.504 340.162 403.162C340.033 402.903 339.903 402.65 339.779 402.384C339.315 401.435 338.832 400.454 338.156 399.405L337.924 399.029C337.031 397.594 335.452 395.11 333.449 395.486C332.856 395.584 332.383 395.935 332.063 396.494C331.309 397.836 331.643 400.193 332.124 401.435C333.12 404.007 335.984 408.042 337.655 408.804C338.063 408.992 338.482 409.063 338.851 409.092C337.887 413.452 337.253 419.162 337.087 424.91L337.072 425.327C337.036 426.754 336.982 428.533 337.167 429.951L337.194 430.173C337.25 430.747 337.34 431.701 338.233 432.001L338.392 432.052L338.56 432.018C340.022 431.718 339.973 430.203 339.943 429.298C339.929 429.069 339.924 428.849 339.941 428.654C339.985 427.966 340.029 427.244 340.075 426.509C340.229 423.94 341.219 414.583 341.219 414.583C341.5 412.712 341.787 410.789 342.231 409.051C345.491 409.583 348.841 409.059 352.962 407.348C354.453 406.736 357.944 405.289 357.451 402.729C357.283 401.853 356.602 400.806 354.326 400.806C352.674 400.806 350.732 401.336 349.568 401.65L349.251 401.735C346.718 402.413 345.052 403.109 343.447 403.899C344.345 400.447 345.353 397.48 346.502 394.879C347.817 395.469 349.418 396.021 351.433 396.138C351.926 396.165 352.509 396.177 353.139 396.177C355.128 396.177 359.937 396.006 361.525 394.389C361.908 393.996 362.111 393.528 362.098 393.028C362.059 390.551 357.745 390.142 354.503 390.051C352.524 389.992 351.075 390.139 349.664 390.28C349.279 390.319 348.895 390.356 348.495 390.392C349.022 389.186 349.644 388.067 350.254 386.969C350.469 386.588 350.681 386.2 350.886 385.817C352.84 387.227 355.641 388.098 358.882 388.294C359.284 388.318 359.726 388.333 360.19 388.333C361.83 388.333 365.814 388.157 367.288 386.513C367.715 386.037 367.908 385.464 367.842 384.849C367.586 382.477 362.667 381.848 359.415 382.094C358.41 382.174 357.412 382.184 356.573 382.184L354.209 382.174C353.848 382.174 353.482 382.174 353.111 382.181C354.038 380.542 355.141 379.065 356.427 377.411C358.355 378.492 361.299 379.126 364.467 379.126C366.736 379.126 368.949 378.794 370.708 378.194L370.84 378.148C372.501 377.584 375.01 376.725 374.793 374.695C374.556 372.489 370.889 372.426 368.698 372.392L368.137 372.377C365.287 372.296 362.381 372.611 359.834 373.236C360.373 372.689 360.925 372.104 361.498 371.499C362.967 369.936 364.641 368.172 366.556 366.554Z" fill="#77F2A1"/>
<path fill-rule="evenodd" clip-rule="evenodd" d="M359.029 424.325C358.936 422.149 358.978 419.218 357.624 418.469C357.121 418.193 356.158 418.096 355.05 418.064L355.052 418.057L354.315 418.052H354.303L305.407 417.852V417.857C304.477 417.845 303.575 417.859 302.703 417.962C299.904 418.284 300.046 420.51 300.114 423.513C300.18 426.175 299.819 429.249 301.371 430.228C302.657 431.021 305.936 430.816 305.936 430.816C306.824 440.839 308.088 451.072 309.096 461.352C309.394 464.4 309.457 469.641 310.904 470.917C312.28 472.13 347.196 472.383 348.562 471.209C349.487 470.421 349.523 468.855 349.719 466.79C350.907 454.656 352.161 442.422 353.435 430.859C355.377 430.762 356.873 430.959 357.856 430.308C359.182 429.437 359.104 426.377 359.029 424.325Z" fill="#212529"/>
<path opacity="0.2" fill-rule="evenodd" clip-rule="evenodd" d="M353.434 430.858L306.221 433.911L305.93 430.814L353.434 430.858Z" fill="black"/>
<path fill-rule="evenodd" clip-rule="evenodd" d="M95.974 290.713C95.9015 290.726 95.8021 290.687 95.7396 290.713C93.8584 291.29 93.1986 295.578 92.3323 297.931C89.4519 305.744 87.2023 314.585 87.9525 325.016C88.3566 330.645 90.9401 336.464 93.0557 341.045C93.7233 342.471 94.765 344.126 94.9994 345.335C95.4538 347.626 95.0965 350.394 95.2472 352.785C95.6804 359.674 96.3402 367.384 96.7031 374.227C78.9708 371.657 50.4673 363.686 30.7891 362.924C29.6827 363.872 29.3378 365.417 28.8409 366.76C27.422 370.631 26.176 375.487 25.6859 380.532C26.7811 381.57 28.3586 382.201 29.8145 382.788C40.0499 386.903 61.7365 395.456 72.1528 399.962C77.8912 402.447 83.8016 404.856 89.8984 406.958C96.0868 409.095 102.816 411.604 109.587 412.152C121.042 413.075 125.06 407.462 127.825 399.962C130.478 392.749 131.295 384.637 131.957 375.132C132.25 370.888 132.897 365.348 131.957 361.364C131.585 359.796 130.463 358.423 129.763 356.852C125.236 346.612 119.653 335.757 114.453 326.15C108.139 314.495 101.41 303.78 96.463 291.386C96.4742 291.002 96.2811 290.803 95.974 290.713Z" fill="#003294"/>
<path opacity="0.19" d="M98.8912 378.745C99.397 380.732 100.56 383.745 98.8912 384.837C95.9684 383.967 94.6387 380.679 93.0556 378.292C91.9169 376.562 90.5816 374.79 89.5914 373.168C91.9548 373.528 94.3284 373.882 96.703 374.229C96.674 373.687 96.6461 373.13 96.6059 372.577C96.7164 372.603 96.8348 372.625 96.9509 372.649C97.4812 374.338 98.3375 376.601 98.8912 378.745Z" fill="black"/>
<path fill-rule="evenodd" clip-rule="evenodd" d="M14.9738 383.758C13.0469 386.692 11.0719 389.407 8.70061 391.587C8.45053 391.815 7.80635 391.656 7.54845 391.872C7.22245 392.146 7.27939 392.792 6.93776 393.045C6.46886 393.391 5.98545 393.717 5.48306 394.02C4.30969 394.733 2.65738 395.781 1.25961 395.113C-0.592549 394.227 -0.0209375 390.679 0.584167 387.735C1.8569 381.542 3.50698 375.916 5.63377 369.716C7.36424 364.705 9.31352 360.319 12.8604 359.643C14.803 359.273 16.9242 359.556 19.1046 359.977C19.4239 360.038 19.5791 360.567 19.9006 360.632C20.2166 360.697 20.6977 360.3 21.0148 360.366C21.1142 360.387 21.2135 360.407 21.314 360.428C24.2424 361.043 27.0525 361.954 30.2845 363.487C29.5845 367.954 28.1254 373.74 26.233 379.204C29.6191 380.162 30.2488 382.49 29.436 386.043C29.1558 387.261 28.4045 389.216 27.6297 389.528C26.0711 390.166 16.7824 385.024 14.9738 383.758Z" fill="#212529"/>
<path d="M12.8827 376.882C8.92384 379.028 6.05909 384.683 6.50119 390.389C6.56259 391.125 6.65972 392.158 6.93771 393.042C7.5484 392.591 8.13006 392.093 8.69274 391.575C8.59896 391.273 8.51523 390.974 8.48062 390.682C8.28636 389.018 8.38907 386.96 9.15606 384.694C11.917 376.469 19.2463 376.961 26.7208 379.385C26.9821 379.467 27.2377 379.581 27.4912 379.698C27.1227 379.509 26.7108 379.337 26.2363 379.203C26.4417 378.599 26.6427 377.989 26.8448 377.376C26.3279 377.224 25.8411 377.087 25.4235 376.971C20.5559 375.57 16.3782 374.987 12.8827 376.882Z" fill="white"/>
<path d="M20.8462 361.44C20.9166 361.113 20.9813 360.744 21.0159 360.365C20.3773 360.235 19.7432 360.1 19.1046 359.977C19.118 360.301 19.137 360.63 19.0756 360.934C17.9748 366.527 13.8864 367.676 9.87284 367.288C8.78878 367.184 7.48256 366.805 6.65417 366.978C6.4655 367.456 6.27459 367.945 6.09149 368.445C6.89867 369.269 9.51 369.307 10.5996 369.34C15.2808 369.506 19.6461 367.676 20.8462 361.44Z" fill="white"/>
<path d="M11.8624 359.959C8.93627 361.199 7.19464 365.196 5.63388 369.715C3.5082 375.914 1.85811 381.54 0.584269 387.734C0.040568 390.369 -0.470756 393.474 0.761781 394.737L11.8624 359.959Z" fill="#003294"/>
<path d="M22.8278 391.532C22.6849 391.674 22.5152 391.805 22.3142 391.917C21.8677 392.176 21.3295 392.173 20.7233 391.897C18.5027 390.89 15.5319 386.239 15.0173 384.381C14.9659 384.2 15.0061 384.003 15.12 383.864C15.2305 383.724 15.4102 383.656 15.5755 383.685C16.8649 383.894 22.4393 387.257 23.1929 389.753C23.3905 390.423 23.261 391.056 22.8278 391.532ZM16.4374 385.17C17.422 387.201 19.6214 390.206 21.1152 390.876C21.4244 391.014 21.6622 391.044 21.8308 390.95C21.9469 390.88 22.0385 390.805 22.1055 390.734C22.2238 390.606 22.3232 390.444 22.2138 390.086C21.7236 388.467 18.2917 386.106 16.4374 385.17Z" fill="#003294"/>
<path d="M18.5587 394.344C18.2282 394.703 17.7615 394.855 17.1855 394.809C16.682 394.772 16.2332 394.461 15.8446 393.878C14.4536 391.763 14.2213 386.13 14.6981 384.273C14.7461 384.087 14.87 383.948 15.0453 383.893C15.2038 383.833 15.3902 383.873 15.5242 383.998C16.4419 384.848 18.9829 389.763 19.0722 392.56C19.1001 393.358 18.9304 393.957 18.5587 394.344ZM15.5175 385.764C15.3635 388.052 15.752 391.828 16.6831 393.251C16.8773 393.54 17.0682 393.699 17.2513 393.721C17.5282 393.733 17.7247 393.682 17.8408 393.56C18.0027 393.401 18.0753 393.063 18.0585 392.594C17.9938 390.651 16.4888 387.394 15.5175 385.764Z" fill="#003294"/>
<path d="M11.9561 391.871L15.6437 384.681L14.7472 384.151L11.0574 391.345L11.9561 391.871Z" fill="#003294"/>
<path fill-rule="evenodd" clip-rule="evenodd" d="M156.165 390.276C146.023 408.1 143.03 432.565 140.274 457.24C140.615 458.132 141.891 458.081 142.645 458.346C146.747 459.786 151.617 461.205 156.539 462.48C157.861 462.823 159.397 463.077 160.671 463.411C166.64 450.519 171.375 438.087 177.041 424.637C180.828 415.672 185.326 405.251 188.192 394.684C189.205 390.954 190.184 386.84 190.087 383.011C189.984 378.758 188.167 375.069 186.06 371.551C180.31 361.969 172.978 352.777 166.603 344.24C162.32 338.501 157.901 332.412 153.556 326.172C148.075 318.33 140.927 309.604 143.826 296.88C129.456 294.75 113.449 293.338 99.2272 291.815C98.708 291.758 98.6321 291.463 97.8037 291.593C96.4551 291.808 96.7788 292.516 96.3803 294.013C94.6978 300.417 93.53 308.468 94.0034 316.48C94.5739 325.939 99.6068 333.593 104.212 340.056C117.503 358.71 138.358 376.669 156.165 390.276Z" fill="#77F2A1"/>
<path fill-rule="evenodd" clip-rule="evenodd" d="M160.743 473.536C163.554 475.493 166.149 477.495 168.21 479.866C168.537 480.243 168.045 480.583 168.343 480.978C168.493 481.176 169.444 481.422 169.586 481.625C169.91 482.09 170.215 482.572 170.498 483.069C171.16 484.232 172.14 485.876 171.451 487.217C170.533 489.001 167.088 488.351 164.227 487.678C158.225 486.268 152.779 484.506 146.79 482.261C141.951 480.439 137.725 478.421 137.16 474.941C136.852 473.034 137.187 470.974 137.657 468.858C137.717 468.587 138.796 468.567 138.859 468.294C138.94 467.947 138.007 467.348 138.089 467.001C138.111 466.906 138.134 466.812 138.156 466.717C138.837 463.874 139.8 461.161 141.383 458.05C145.725 458.851 151.329 460.433 156.607 462.429C157.638 459.148 159.923 458.595 163.368 459.488C164.545 459.795 166.434 460.578 166.719 461.343C167.292 462.884 162.031 471.802 160.743 473.536Z" fill="#212529"/>
<path d="M153.977 475.388C155.969 479.31 161.403 482.258 166.98 481.979C167.703 481.941 168.716 481.871 169.586 481.625C169.158 481.018 168.689 480.44 168.199 479.876C167.903 479.961 167.612 480.033 167.322 480.058C165.694 480.203 163.691 480.049 161.499 479.239C153.75 476.394 154.201 469.539 156.608 462.499L156.606 462.429C156.022 462.208 155.433 461.995 154.838 461.785C154.676 462.278 154.531 462.755 154.41 463.155C152.908 467.869 152.225 471.925 153.977 475.388Z" fill="white"/>
<path d="M139.131 467.197C138.818 467.125 138.457 467.046 138.089 467C137.944 467.623 137.793 468.24 137.656 468.857C137.974 468.853 138.294 468.848 138.59 468.91C144.019 470.138 145.026 474.156 144.538 478.064C144.407 479.119 144.008 480.38 144.146 481.19C144.609 481.392 145.08 481.588 145.569 481.78C146.39 481.017 146.494 478.472 146.563 477.41C146.847 472.845 145.184 468.537 139.131 467.197Z" fill="white"/>
<path d="M137.443 475.927C138.572 478.812 142.425 480.619 146.79 482.262C152.779 484.507 158.224 486.269 164.227 487.679C166.789 488.281 169.801 488.86 171.068 487.698L137.443 475.927Z" fill="#003294"/>
<path d="M168.542 466.082C168.676 466.228 168.803 466.397 168.9 466.594C169.142 467.039 169.129 467.564 168.838 468.146C167.798 470.29 163.175 473.058 161.348 473.508C161.172 473.554 160.985 473.508 160.855 473.397C160.723 473.285 160.656 473.109 160.691 472.944C160.926 471.697 164.36 466.35 166.815 465.681C167.478 465.505 168.089 465.644 168.542 466.082ZM162.163 472.146C164.17 471.235 167.161 469.172 167.855 467.735C167.998 467.439 168.029 467.204 167.947 467.04C167.882 466.925 167.809 466.833 167.748 466.765C167.624 466.642 167.468 466.543 167.116 466.64C165.522 467.074 163.128 470.359 162.163 472.146Z" fill="#003294"/>
<path d="M171.165 470.322C171.505 470.656 171.644 471.114 171.585 471.676C171.534 472.167 171.219 472.595 170.643 472.955C168.541 474.262 163.037 474.329 161.242 473.817C161.058 473.769 160.924 473.638 160.879 473.467C160.825 473.309 160.865 473.131 160.991 473.001C161.848 472.131 166.711 469.785 169.443 469.774C170.219 469.768 170.803 469.953 171.165 470.322ZM162.714 473.059C164.938 473.272 168.636 472.997 170.049 472.125C170.343 471.942 170.498 471.76 170.526 471.584C170.545 471.311 170.499 471.118 170.386 471.002C170.235 470.842 169.909 470.762 169.453 470.767C167.55 470.773 164.332 472.15 162.714 473.059Z" fill="#003294"/>
<path d="M168.579 476.701L161.661 472.907L161.123 473.768L168.038 477.562L168.579 476.701Z" fill="#003294"/>
<path fill-rule="evenodd" clip-rule="evenodd" d="M14.4378 145.764C13.4765 145.491 10.489 144.043 8.87461 143.84C8.25053 143.755 7.48354 143.831 7.28705 144.324C6.87844 145.356 9.34351 146.301 10.1619 146.74C11.5619 147.506 12.493 148.116 13.7121 148.735C12.5767 148.563 9.68514 147.141 7.71799 146.795C6.89407 146.645 5.92501 146.624 5.70172 147.267C5.41145 148.077 7.34957 149.072 7.98705 149.423C11.0583 151.119 14.4735 153.037 16.6137 154.84C19.0799 156.919 20.9119 159.018 22.5006 161.66C22.8858 162.3 23.4161 163.819 24.1641 164.058C24.5135 164.171 25.4558 163.929 25.793 163.787C26.9395 163.301 28.0884 162.357 29.5721 161.24C30.1314 160.813 30.7153 160.411 31.3483 159.783C31.863 159.277 32.8365 158.498 32.9582 158.18C33.1547 157.676 32.6836 156.479 32.3989 155.775C31.5649 153.717 30.1515 150.92 29.4035 149.238C28.7649 147.776 28.0973 146.246 27.4922 144.833C26.9295 143.495 25.1131 139.093 23.1805 139.553C21.5818 139.937 23.8939 144.001 23.9743 145.196C22.4504 143.696 19.5901 141.626 16.1872 140.212C15.2963 139.842 13.4665 138.977 12.963 139.636C12.2663 140.542 13.6954 141.28 14.277 141.735C15.0898 142.366 15.6123 142.911 16.4083 143.34C15.0954 143.031 12.436 141.665 10.8317 141.51C10.3036 141.458 9.64718 141.585 9.47525 141.954C9.08227 142.825 10.5816 143.395 11.4859 143.939C12.7207 144.68 13.4676 145.243 14.3339 145.739C14.3619 145.743 14.392 145.756 14.4378 145.764Z" fill="#FCD2C0"/>
<path fill-rule="evenodd" clip-rule="evenodd" d="M195.428 148.178C195.214 149.98 194.68 153.037 194.48 155.227C194.418 155.981 194.323 157.251 194.657 157.682C194.867 157.962 196.035 158.458 196.681 158.812C197.435 159.236 198.086 159.468 198.727 159.722C200.945 158.115 203.545 156.975 206.325 156.414C207.052 154.279 208.023 152.332 209.38 150.304C210.906 148.023 213.624 145.308 216.074 142.893C216.585 142.388 218.157 140.94 217.64 140.237C217.234 139.676 216.302 139.949 215.554 140.292C213.765 141.133 211.413 143.24 210.373 143.693C211.358 142.789 212.071 141.961 213.197 140.869C213.843 140.236 215.942 138.696 215.24 137.816C214.904 137.391 214.147 137.515 213.571 137.751C212.128 138.34 209.824 140.352 208.906 140.947L208.887 140.965C208.86 140.985 208.826 140.999 208.796 141.018C208.826 140.999 208.876 140.961 208.906 140.947C209.579 140.251 210.133 139.53 211.094 138.509C211.8 137.755 213.078 136.829 212.437 136.092C212.168 135.776 211.499 135.824 211.011 136.007C209.506 136.565 207.361 138.561 206.176 139.191C206.814 138.574 207.167 137.921 207.754 137.104C208.179 136.512 209.339 135.442 208.4 134.753C207.714 134.243 206.212 135.543 205.466 136.123C202.616 138.349 200.476 141.067 199.461 142.904C199.179 141.737 200.194 137.236 198.551 137.277C196.552 137.323 196.105 142.021 195.959 143.45C195.804 144.958 195.613 146.608 195.428 148.178Z" fill="#FCD2C0"/>
<path fill-rule="evenodd" clip-rule="evenodd" d="M195.36 148.7C198.431 149.645 204.969 151.743 207.884 152.799C204.431 162.568 198.439 184.208 195.05 192.605C191.63 201.102 189.917 206.468 183.522 212.184C171.16 223.236 162.173 228.226 157.406 240.326C153.649 249.866 156.915 289.084 158.956 311.913C144.343 313.734 100.141 317.939 82.1761 315.754C82.7544 302.758 85.1157 253.746 80.7225 244.426C77.7885 238.211 65.0088 226.091 61.4295 223.68C54.329 218.904 47.3123 213.61 41.9266 207.118C36.2607 200.293 23.1605 174.056 19.2307 157.315C22.6604 155.016 26.7186 153.795 30.8449 152.328C38.8207 166.818 47.8582 184.511 61.3435 194.967C74.6424 205.27 87.4702 214.447 107.886 220.232C116.421 221.854 120.405 221.646 125.511 219.338C138.885 211.348 155.77 205.42 168.415 196.67C181.211 187.816 195.36 148.7 195.36 148.7Z" fill="#212529"/>
<path fill-rule="evenodd" clip-rule="evenodd" d="M124.033 213.151C130.205 212.52 133.909 209.817 133.295 202.903C133.08 200.399 132.246 196.888 131.744 193.561C130.824 187.475 129.551 183.162 126.092 180.158C123.796 178.166 120.586 177.116 117.839 176.599C115.043 176.079 110.777 176.914 108.655 177.748C103.041 179.962 98.3877 186.957 100.284 194.459C101.03 197.397 102.446 199.934 103.881 202.111C106.212 205.655 106.788 208.602 107.324 213.305C107.552 215.27 107.76 219.642 107.76 219.642C107.806 223.852 113.991 230.05 118.653 229.278C121.473 228.815 124.462 225.344 124.066 221.149L124.033 213.151Z" fill="#FCD2C0"/>
<path fill-rule="evenodd" clip-rule="evenodd" d="M110.627 203.67C110.862 206.436 109.728 208.622 106.573 209.084C101.567 209.824 90.8351 196.897 91.8231 188.564C92.1547 185.706 93.8986 183.433 96.8269 181.815C98.5094 177.206 99.8235 174.595 105.946 172.262C113.997 169.195 128.062 166.64 130.805 171.385C133.185 175.504 129.925 179.851 127.631 181.783C126.329 182.879 124.089 184.107 122.232 184.974C120.117 185.969 117.409 186.388 116.076 187.603C114.949 188.644 114.86 191.363 114.995 193.44C115.088 194.808 116.322 198.404 113.915 199.279C110.763 200.417 109.636 194.641 106.379 195.492C103.402 196.278 104.193 200.317 106.223 202.364C107.561 203.718 109.063 203.54 110.627 203.67Z" fill="#003294"/>
<path fill-rule="evenodd" clip-rule="evenodd" d="M122.386 190.563C123.227 189.409 124.143 188.794 125.011 188.497C127.08 188.481 127.551 188.937 127.551 188.937C127.551 188.937 127.77 189.466 126.868 190.558C126.598 190.689 126.295 190.812 125.955 190.918C124.297 191.436 122.386 190.563 122.386 190.563Z" fill="white"/>
<path fill-rule="evenodd" clip-rule="evenodd" d="M128.822 188.857C128.822 188.857 127.056 187.81 125.01 188.496C124.978 188.665 124.886 188.989 124.911 189.164C124.999 189.942 125.71 190.534 126.609 190.672C128.303 189.949 128.822 188.857 128.822 188.857Z" fill="#003294"/>
<path d="M121.328 189.377C122.954 186.614 126.525 186.136 127.909 186.343L128.098 185.242C125.92 184.912 122.053 185.815 120.271 188.845L121.328 189.377Z" fill="#003294"/>
<path opacity="0.13" fill-rule="evenodd" clip-rule="evenodd" d="M130.338 188.071C129.293 188.127 130.986 194.676 132.175 197.131C133.526 197.23 135.187 196.611 135.405 195.552C135.857 193.456 131.322 188.017 130.338 188.071Z" fill="black"/>
<path opacity="0.13" d="M125.767 200.462L124.925 201.483C127.176 203.069 130.538 203.885 133.243 202.424C133.197 201.974 133.14 201.505 133.062 201.007C130.824 202.578 127.767 201.877 125.767 200.462Z" fill="black"/>
<path opacity="0.13" fill-rule="evenodd" clip-rule="evenodd" d="M124.033 213.152C124.033 213.152 117.856 212.912 113.603 210.837C113.603 210.837 116.181 218.269 124.149 218.344L124.033 213.152Z" fill="black"/>
<path fill-rule="evenodd" clip-rule="evenodd" d="M106.766 240.295C109.829 240.91 119.893 231.707 119.489 229.709C119.045 227.566 110.01 216.479 108.287 216.131C105.673 215.994 105.536 219.538 105.235 221.875C104.721 225.833 104.739 229.981 104.99 234.196C105.12 236.511 104.683 239.882 106.766 240.295Z" fill="white"/>
<path fill-rule="evenodd" clip-rule="evenodd" d="M118.777 229.82C119.248 232.857 127.616 238.115 129.47 237.194C131.421 236.22 127.188 218.698 124.399 218.372C121.848 219.471 118.365 227.185 118.777 229.82Z" fill="white"/>
<path opacity="0.19" d="M166.439 395.786C163.233 393.585 159.15 391.343 155.53 389.421C155.256 389.373 155.144 389.488 155.009 389.571C155.354 389.833 155.7 390.104 156.034 390.362C154.942 392.281 153.949 394.29 153 396.344C157.92 397.583 163.566 398.961 168.985 398.848C169.176 397.349 167.516 396.521 166.439 395.786Z" fill="black"/>
</svg>
