<svg width="18" height="18" viewBox="0 0 18 18" fill="none" xmlns="http://www.w3.org/2000/svg">
<path d="M8.14413 2.63429C8.41413 1.80539 9.58683 1.80539 9.85593 2.63429L10.8189 5.59709C10.8778 5.77753 10.9921 5.93476 11.1457 6.04629C11.2992 6.15782 11.4841 6.21795 11.6739 6.21809H14.7897C15.6618 6.21809 16.0236 7.33409 15.3189 7.84709L12.7989 9.67769C12.6451 9.78932 12.5305 9.9468 12.4716 10.1276C12.4128 10.3083 12.4127 10.5031 12.4713 10.6839L13.4343 13.6467C13.7043 14.4756 12.7548 15.1659 12.0483 14.6529L9.52833 12.8223C9.37461 12.7107 9.18953 12.6506 8.99958 12.6506C8.80962 12.6506 8.62454 12.7107 8.47083 12.8223L5.95083 14.6529C5.24523 15.1659 4.29663 14.4756 4.56573 13.6467L5.52873 10.6839C5.58738 10.5031 5.58728 10.3083 5.52843 10.1276C5.46957 9.9468 5.355 9.78932 5.20113 9.67769L2.68203 7.84799C1.97733 7.33499 2.34003 6.21899 3.21123 6.21899H6.32613C6.51607 6.21904 6.70116 6.159 6.8549 6.04745C7.00864 5.93591 7.12314 5.77858 7.18203 5.59799L8.14503 2.63519L8.14413 2.63429Z" fill="#77F2A1"/>
</svg>
