<svg width="24" height="24" viewBox="0 0 24 24" fill="none" xmlns="http://www.w3.org/2000/svg">
<g opacity="0.8">
<path d="M14.752 10.727L11.555 8.67918C11.4043 8.58258 11.229 8.52714 11.048 8.51878C10.867 8.51042 10.687 8.54946 10.5274 8.63173C10.3677 8.714 10.2342 8.8364 10.1414 8.98585C10.0485 9.1353 9.99961 9.30619 10 9.48025V13.5749C9.99998 13.7488 10.0491 13.9194 10.1421 14.0686C10.2352 14.2178 10.3686 14.3399 10.5282 14.422C10.6879 14.504 10.8677 14.5429 11.0485 14.5344C11.2293 14.526 11.4044 14.4706 11.555 14.3741L14.752 12.3262C14.889 12.2385 15.0013 12.1197 15.0789 11.9803C15.1566 11.8409 15.1972 11.6852 15.1972 11.5271C15.1972 11.369 15.1566 11.2133 15.0789 11.0739C15.0013 10.9345 14.889 10.8157 14.752 10.728V10.727Z" stroke="black" stroke-width="1.5" stroke-linecap="round" stroke-linejoin="round"/>
<path d="M21 11.5261C21 12.6614 20.7672 13.7855 20.3149 14.8343C19.8626 15.8831 19.1997 16.8361 18.364 17.6388C17.5282 18.4415 16.5361 19.0783 15.4442 19.5127C14.3522 19.9472 13.1819 20.1708 12 20.1708C10.8181 20.1708 9.64778 19.9472 8.55585 19.5127C7.46392 19.0783 6.47177 18.4415 5.63604 17.6388C4.80031 16.8361 4.13738 15.8831 3.68508 14.8343C3.23279 13.7855 3 12.6614 3 11.5261C3 9.23345 3.94821 7.03466 5.63604 5.41348C7.32387 3.7923 9.61305 2.88153 12 2.88153C14.3869 2.88153 16.6761 3.7923 18.364 5.41348C20.0518 7.03466 21 9.23345 21 11.5261Z" stroke="black" stroke-width="1.5" stroke-linecap="round" stroke-linejoin="round"/>
</g>
</svg>
