<svg width="20" height="20" viewBox="0 0 20 20" fill="none" xmlns="http://www.w3.org/2000/svg">
<path d="M10.3437 14.8986L14.2812 17.3986C14.789 17.7189 15.414 17.2424 15.2656 16.6564L14.1249 12.172C14.0941 12.0477 14.099 11.9172 14.1391 11.7956C14.1792 11.674 14.2528 11.5661 14.3515 11.4845L17.8828 8.53921C18.3437 8.15639 18.1093 7.38295 17.5078 7.34389L12.8984 7.04701C12.7726 7.0397 12.6517 6.9959 12.5504 6.92098C12.4491 6.84606 12.3719 6.74326 12.3281 6.62514L10.6093 2.297C10.5638 2.17193 10.4809 2.06388 10.3719 1.98753C10.2629 1.91118 10.133 1.87022 9.99992 1.87022C9.86683 1.87022 9.73696 1.91118 9.62794 1.98753C9.51892 2.06388 9.43604 2.17193 9.39054 2.297L7.67179 6.62514C7.62798 6.74326 7.55072 6.84606 7.44944 6.92098C7.34816 6.9959 7.22724 7.0397 7.10148 7.04701L2.49209 7.34389C1.89052 7.38295 1.65615 8.15639 2.11709 8.53921L5.64835 11.4845C5.74705 11.5661 5.82068 11.674 5.86076 11.7956C5.90085 11.9172 5.90575 12.0477 5.87491 12.172L4.82022 16.3283C4.64053 17.0314 5.39053 17.6017 5.9921 17.2189L9.65617 14.8986C9.75892 14.8333 9.87816 14.7986 9.99992 14.7986C10.1217 14.7986 10.2409 14.8333 10.3437 14.8986Z" fill="#77F2A1"/>
</svg>
