<svg width="30" height="30" viewBox="0 0 30 30" fill="none" xmlns="http://www.w3.org/2000/svg">
<path d="M30 6.875V25C30 27.75 27.5455 30 24.5455 30H14.5909C13.1182 30 11.7273 29.4625 10.7045 28.5125L0 18.5375C0 18.5375 1.71818 17 1.77273 16.975C2.07273 16.7375 2.44091 16.6125 2.85 16.6125C3.15 16.6125 3.42273 16.6875 3.66818 16.8125C3.72273 16.825 9.54545 19.8875 9.54545 19.8875V5C9.54545 3.9625 10.4591 3.125 11.5909 3.125C12.7227 3.125 13.6364 3.9625 13.6364 5V13.75H15V1.875C15 0.8375 15.9136 0 17.0455 0C18.1773 0 19.0909 0.8375 19.0909 1.875V13.75H20.4545V3.125C20.4545 2.0875 21.3682 1.25 22.5 1.25C23.6318 1.25 24.5455 2.0875 24.5455 3.125V13.75H25.9091V6.875C25.9091 5.8375 26.8227 5 27.9545 5C29.0864 5 30 5.8375 30 6.875Z" fill="white"/>
</svg>
