<svg width="19" height="19" viewBox="0 0 19 19" fill="none" xmlns="http://www.w3.org/2000/svg">
<path d="M19 17.4452L13.6925 12.3031C14.9679 10.8197 15.6038 8.91699 15.4681 6.99087C15.3324 5.06475 14.4354 3.26347 12.9638 1.96174C11.4922 0.660021 9.55931 -0.0419217 7.56714 0.00193825C5.57496 0.0457982 3.67693 0.832084 2.26789 2.19723C0.858843 3.56237 0.047271 5.40127 0.00200058 7.33137C-0.0432698 9.26148 0.681247 11.1342 2.02483 12.5599C3.36842 13.9857 5.22762 14.8547 7.21568 14.9862C9.20375 15.1177 11.1676 14.5015 12.6987 13.2659L18.0062 18.408L19 17.4452ZM1.43044 7.51385C1.43044 6.30185 1.8014 5.11707 2.4964 4.10933C3.1914 3.10159 4.17924 2.31615 5.33499 1.85234C6.49074 1.38852 7.76249 1.26717 8.98943 1.50362C10.2164 1.74007 11.3434 2.3237 12.228 3.18071C13.1125 4.03773 13.7149 5.12963 13.959 6.31834C14.203 7.50705 14.0778 8.73918 13.5991 9.85892C13.1203 10.9787 12.3096 11.9357 11.2695 12.6091C10.2293 13.2824 9.00645 13.6418 7.75548 13.6418C6.07854 13.64 4.47083 12.9938 3.28505 11.845C2.09928 10.6962 1.4323 9.13853 1.43044 7.51385Z" fill="#CFD7D9"/>
</svg>
